solid OpenSCAD_Model
  facet normal 1 -0 0
    outer loop
      vertex 1 1 91
      vertex 1 122 1
      vertex 1 122 91
    endloop
  endfacet
  facet normal 1 0 0
    outer loop
      vertex 1 122 1
      vertex 1 1 91
      vertex 1 1 1
    endloop
  endfacet
  facet normal 0 0 -1
    outer loop
      vertex 1 1 91
      vertex 226 122 91
      vertex 226 1 91
    endloop
  endfacet
  facet normal -0 0 -1
    outer loop
      vertex 226 122 91
      vertex 1 1 91
      vertex 1 122 91
    endloop
  endfacet
  facet normal -1 0 0
    outer loop
      vertex 226 1 1
      vertex 226 122 91
      vertex 226 122 1
    endloop
  endfacet
  facet normal -1 -0 0
    outer loop
      vertex 226 122 91
      vertex 226 1 1
      vertex 226 1 91
    endloop
  endfacet
  facet normal 0 0 1
    outer loop
      vertex 158.028 56.76 1
      vertex 155.81 54.5426 1
      vertex 155.926 54.4264 1
    endloop
  endfacet
  facet normal 0 0 1
    outer loop
      vertex 226 122 1
      vertex 225 22 1
      vertex 226 1 1
    endloop
  endfacet
  facet normal 0 0 1
    outer loop
      vertex 226 122 1
      vertex 224.945 23.0453 1
      vertex 225 22 1
    endloop
  endfacet
  facet normal 0 0 1
    outer loop
      vertex 226 122 1
      vertex 224.511 25.0902 1
      vertex 224.945 23.0453 1
    endloop
  endfacet
  facet normal 0 0 1
    outer loop
      vertex 226 122 1
      vertex 223.66 27 1
      vertex 224.511 25.0902 1
    endloop
  endfacet
  facet normal 0 0 1
    outer loop
      vertex 226 122 1
      vertex 222.431 28.6913 1
      vertex 223.66 27 1
    endloop
  endfacet
  facet normal 0 0 1
    outer loop
      vertex 226 122 1
      vertex 220.878 30.0902 1
      vertex 222.431 28.6913 1
    endloop
  endfacet
  facet normal 0 0 1
    outer loop
      vertex 226 122 1
      vertex 219.067 31.1355 1
      vertex 220.878 30.0902 1
    endloop
  endfacet
  facet normal 0 0 1
    outer loop
      vertex 226 122 1
      vertex 217.079 31.7815 1
      vertex 219.067 31.1355 1
    endloop
  endfacet
  facet normal 0 0 1
    outer loop
      vertex 226 122 1
      vertex 215 32 1
      vertex 217.079 31.7815 1
    endloop
  endfacet
  facet normal -0 0 1
    outer loop
      vertex 164.672 74.0695 1
      vertex 215 32 1
      vertex 226 122 1
    endloop
  endfacet
  facet normal 0 0 1
    outer loop
      vertex 215 32 1
      vertex 164.672 74.0695 1
      vertex 212.921 31.7815 1
    endloop
  endfacet
  facet normal 0 0 1
    outer loop
      vertex 212.921 31.7815 1
      vertex 164.672 74.0695 1
      vertex 210.933 31.1355 1
    endloop
  endfacet
  facet normal -0 0 1
    outer loop
      vertex 163.691 67.875 1
      vertex 210.933 31.1355 1
      vertex 164.672 74.0695 1
    endloop
  endfacet
  facet normal 0 0 1
    outer loop
      vertex 210.933 31.1355 1
      vertex 163.691 67.875 1
      vertex 209.122 30.0902 1
    endloop
  endfacet
  facet normal -0 0 1
    outer loop
      vertex 161.443 62.0199 1
      vertex 209.122 30.0902 1
      vertex 163.691 67.875 1
    endloop
  endfacet
  facet normal 0 0 1
    outer loop
      vertex 209.122 30.0902 1
      vertex 161.443 62.0199 1
      vertex 207.569 28.6913 1
    endloop
  endfacet
  facet normal 0 0 1
    outer loop
      vertex 205.055 23.0453 1
      vertex 205 22 1
      vertex 205.055 22 1
    endloop
  endfacet
  facet normal 0 0 1
    outer loop
      vertex 205.055 23.0453 1
      vertex 202.921 21.7815 1
      vertex 205 22 1
    endloop
  endfacet
  facet normal 0 0 1
    outer loop
      vertex 207.569 28.6913 1
      vertex 161.443 62.0199 1
      vertex 206.34 27 1
    endloop
  endfacet
  facet normal 0 -0 1
    outer loop
      vertex 199.122 20.0902 1
      vertex 206.34 27 1
      vertex 161.443 62.0199 1
    endloop
  endfacet
  facet normal 0 -0 1
    outer loop
      vertex 200.933 21.1355 1
      vertex 206.34 27 1
      vertex 199.122 20.0902 1
    endloop
  endfacet
  facet normal 0 -0 1
    outer loop
      vertex 202.921 21.7815 1
      vertex 205.489 25.0902 1
      vertex 200.933 21.1355 1
    endloop
  endfacet
  facet normal 0 0 1
    outer loop
      vertex 205.489 25.0902 1
      vertex 202.921 21.7815 1
      vertex 205.055 23.0453 1
    endloop
  endfacet
  facet normal 0 0 1
    outer loop
      vertex 206.34 27 1
      vertex 200.933 21.1355 1
      vertex 205.489 25.0902 1
    endloop
  endfacet
  facet normal -0 0 1
    outer loop
      vertex 155.926 54.4264 1
      vertex 197.569 18.6913 1
      vertex 158.028 56.76 1
    endloop
  endfacet
  facet normal 0 0 1
    outer loop
      vertex 199.122 20.0902 1
      vertex 158.028 56.76 1
      vertex 197.569 18.6913 1
    endloop
  endfacet
  facet normal -0 0 1
    outer loop
      vertex 158.028 56.76 1
      vertex 199.122 20.0902 1
      vertex 161.443 62.0199 1
    endloop
  endfacet
  facet normal 0 0 1
    outer loop
      vertex 226 122 1
      vertex 164.344 80.3326 1
      vertex 164.672 74.0695 1
    endloop
  endfacet
  facet normal 0 0 1
    outer loop
      vertex 226 122 1
      vertex 162.721 86.3906 1
      vertex 164.344 80.3326 1
    endloop
  endfacet
  facet normal 0 0 1
    outer loop
      vertex 226 122 1
      vertex 159.873 91.9787 1
      vertex 162.721 86.3906 1
    endloop
  endfacet
  facet normal 0 0 1
    outer loop
      vertex 226 122 1
      vertex 155.926 96.8528 1
      vertex 159.873 91.9787 1
    endloop
  endfacet
  facet normal 0 0 1
    outer loop
      vertex 226 122 1
      vertex 151.052 100.8 1
      vertex 155.926 96.8528 1
    endloop
  endfacet
  facet normal 0 0 1
    outer loop
      vertex 226 122 1
      vertex 145.464 103.647 1
      vertex 151.052 100.8 1
    endloop
  endfacet
  facet normal 0 0 1
    outer loop
      vertex 226 122 1
      vertex 139.406 105.27 1
      vertex 145.464 103.647 1
    endloop
  endfacet
  facet normal 0 0 1
    outer loop
      vertex 226 122 1
      vertex 133.143 105.598 1
      vertex 139.406 105.27 1
    endloop
  endfacet
  facet normal 0 0 1
    outer loop
      vertex 96.9798 105.27 1
      vertex 133.143 105.598 1
      vertex 226 122 1
    endloop
  endfacet
  facet normal 0 0 1
    outer loop
      vertex 115.834 98.9539 1
      vertex 113.5 96.8528 1
      vertex 113.616 96.7366 1
    endloop
  endfacet
  facet normal 0 0 1
    outer loop
      vertex 115.834 98.9539 1
      vertex 108.626 100.8 1
      vertex 113.5 96.8528 1
    endloop
  endfacet
  facet normal 0 0 1
    outer loop
      vertex 121.093 102.37 1
      vertex 108.626 100.8 1
      vertex 115.834 98.9539 1
    endloop
  endfacet
  facet normal -0 0 1
    outer loop
      vertex 103.038 103.647 1
      vertex 121.093 102.37 1
      vertex 126.949 104.617 1
    endloop
  endfacet
  facet normal 0 0 1
    outer loop
      vertex 121.093 102.37 1
      vertex 103.038 103.647 1
      vertex 108.626 100.8 1
    endloop
  endfacet
  facet normal 0 0 1
    outer loop
      vertex 133.143 105.598 1
      vertex 96.9798 105.27 1
      vertex 126.949 104.617 1
    endloop
  endfacet
  facet normal 0 0 1
    outer loop
      vertex 126.949 104.617 1
      vertex 96.9798 105.27 1
      vertex 103.038 103.647 1
    endloop
  endfacet
  facet normal 0 0 1
    outer loop
      vertex 226 122 1
      vertex 90.7167 105.598 1
      vertex 96.9798 105.27 1
    endloop
  endfacet
  facet normal 0 0 1
    outer loop
      vertex 1 122 1
      vertex 62.3279 77.2097 1
      vertex 63.309 83.4042 1
    endloop
  endfacet
  facet normal 0 0 1
    outer loop
      vertex 1 122 1
      vertex 63.309 83.4042 1
      vertex 65.5566 89.2593 1
    endloop
  endfacet
  facet normal 0 0 1
    outer loop
      vertex 62.3279 77.2097 1
      vertex 31.7815 14.0791 1
      vertex 32 12 1
    endloop
  endfacet
  facet normal 0 0 1
    outer loop
      vertex 62.3279 77.2097 1
      vertex 31.1355 16.0674 1
      vertex 31.7815 14.0791 1
    endloop
  endfacet
  facet normal 0 0 1
    outer loop
      vertex 62.3279 77.2097 1
      vertex 30.0902 17.8778 1
      vertex 31.1355 16.0674 1
    endloop
  endfacet
  facet normal 0 0 1
    outer loop
      vertex 62.3279 77.2097 1
      vertex 28.6913 19.4314 1
      vertex 30.0902 17.8778 1
    endloop
  endfacet
  facet normal 0 0 1
    outer loop
      vertex 62.3279 77.2097 1
      vertex 20.0902 27.8778 1
      vertex 28.6913 19.4314 1
    endloop
  endfacet
  facet normal 0 0 1
    outer loop
      vertex 28.6913 19.4314 1
      vertex 20.0902 27.8778 1
      vertex 27 20.6602 1
    endloop
  endfacet
  facet normal -0 -0 1
    outer loop
      vertex 21.1355 26.0674 1
      vertex 27 20.6602 1
      vertex 20.0902 27.8778 1
    endloop
  endfacet
  facet normal -0 -0 1
    outer loop
      vertex 21.7815 24.0791 1
      vertex 25.0902 21.5106 1
      vertex 21.1355 26.0674 1
    endloop
  endfacet
  facet normal 0 0 1
    outer loop
      vertex 23.0453 21.9452 1
      vertex 21.7815 24.0791 1
      vertex 22 22 1
    endloop
  endfacet
  facet normal 0 0 1
    outer loop
      vertex 1 122 1
      vertex 65.5566 89.2593 1
      vertex 68.9724 94.5192 1
    endloop
  endfacet
  facet normal 0 0 1
    outer loop
      vertex 25.0902 21.5106 1
      vertex 21.7815 24.0791 1
      vertex 23.0453 21.9452 1
    endloop
  endfacet
  facet normal 0 0 1
    outer loop
      vertex 27 20.6602 1
      vertex 21.1355 26.0674 1
      vertex 25.0902 21.5106 1
    endloop
  endfacet
  facet normal 0 0 1
    outer loop
      vertex 62.3279 77.2097 1
      vertex 18.6913 29.4314 1
      vertex 20.0902 27.8778 1
    endloop
  endfacet
  facet normal 0 0 1
    outer loop
      vertex 62.3279 77.2097 1
      vertex 17 30.6602 1
      vertex 18.6913 29.4314 1
    endloop
  endfacet
  facet normal 0 0 1
    outer loop
      vertex 62.3279 77.2097 1
      vertex 15.0902 31.5106 1
      vertex 17 30.6602 1
    endloop
  endfacet
  facet normal 0 0 1
    outer loop
      vertex 62.3279 77.2097 1
      vertex 13.0453 31.9452 1
      vertex 15.0902 31.5106 1
    endloop
  endfacet
  facet normal 0 0 1
    outer loop
      vertex 62.3279 77.2097 1
      vertex 1 122 1
      vertex 13.0453 31.9452 1
    endloop
  endfacet
  facet normal 0 0 1
    outer loop
      vertex 13.0453 31.9452 1
      vertex 1 122 1
      vertex 10.9547 31.9452 1
    endloop
  endfacet
  facet normal 0 0 1
    outer loop
      vertex 10.9547 31.9452 1
      vertex 1 122 1
      vertex 8.90982 31.5106 1
    endloop
  endfacet
  facet normal 0 0 1
    outer loop
      vertex 8.90982 31.5106 1
      vertex 1 122 1
      vertex 7 30.6602 1
    endloop
  endfacet
  facet normal 0 0 1
    outer loop
      vertex 1 1 1
      vertex 2 22 1
      vertex 1 122 1
    endloop
  endfacet
  facet normal 0 0 1
    outer loop
      vertex 2.21852 24.0791 1
      vertex 1 122 1
      vertex 2 22 1
    endloop
  endfacet
  facet normal 0 0 1
    outer loop
      vertex 2.86453 26.0674 1
      vertex 1 122 1
      vertex 2.21852 24.0791 1
    endloop
  endfacet
  facet normal 0 0 1
    outer loop
      vertex 3.90982 27.8778 1
      vertex 1 122 1
      vertex 2.86453 26.0674 1
    endloop
  endfacet
  facet normal 0 0 1
    outer loop
      vertex 5.30869 29.4314 1
      vertex 1 122 1
      vertex 3.90982 27.8778 1
    endloop
  endfacet
  facet normal 0 0 1
    outer loop
      vertex 7 30.6602 1
      vertex 1 122 1
      vertex 5.30869 29.4314 1
    endloop
  endfacet
  facet normal 0 0 1
    outer loop
      vertex 73.4072 98.9539 1
      vertex 1 122 1
      vertex 68.9724 94.5192 1
    endloop
  endfacet
  facet normal 0 0 1
    outer loop
      vertex 78.6671 102.37 1
      vertex 1 122 1
      vertex 73.4072 98.9539 1
    endloop
  endfacet
  facet normal 0 0 1
    outer loop
      vertex 84.5222 104.617 1
      vertex 1 122 1
      vertex 78.6671 102.37 1
    endloop
  endfacet
  facet normal 0 0 1
    outer loop
      vertex 90.7167 105.598 1
      vertex 1 122 1
      vertex 84.5222 104.617 1
    endloop
  endfacet
  facet normal -0 0 1
    outer loop
      vertex 1 122 1
      vertex 90.7167 105.598 1
      vertex 226 122 1
    endloop
  endfacet
  facet normal -0 0 1
    outer loop
      vertex 225 2 1
      vertex 226 1 1
      vertex 225 22 1
    endloop
  endfacet
  facet normal -0 0 1
    outer loop
      vertex 205 2 1
      vertex 226 1 1
      vertex 225 2 1
    endloop
  endfacet
  facet normal 0 0 1
    outer loop
      vertex 197.569 18.6913 1
      vertex 155.926 54.4264 1
      vertex 196.34 17 1
    endloop
  endfacet
  facet normal 0 0 1
    outer loop
      vertex 196.34 17 1
      vertex 155.926 54.4264 1
      vertex 195.489 15.0902 1
    endloop
  endfacet
  facet normal 0 0 1
    outer loop
      vertex 195.489 15.0902 1
      vertex 155.926 54.4264 1
      vertex 195.055 13.0453 1
    endloop
  endfacet
  facet normal 0 0 1
    outer loop
      vertex 113.5 12 1
      vertex 195.055 13.0453 1
      vertex 155.926 54.4264 1
    endloop
  endfacet
  facet normal 0 0 1
    outer loop
      vertex 195.055 13.0453 1
      vertex 113.5 12 1
      vertex 195.055 10.9547 1
    endloop
  endfacet
  facet normal 0 0 1
    outer loop
      vertex 195.055 10.9547 1
      vertex 113.5 12 1
      vertex 195.489 8.90982 1
    endloop
  endfacet
  facet normal 0 0 1
    outer loop
      vertex 195.489 8.90982 1
      vertex 113.5 12 1
      vertex 196.34 7 1
    endloop
  endfacet
  facet normal 0 0 1
    outer loop
      vertex 196.34 7 1
      vertex 113.5 12 1
      vertex 197.569 5.30869 1
    endloop
  endfacet
  facet normal 0 0 1
    outer loop
      vertex 113.5 12 1
      vertex 199.122 3.90982 1
      vertex 197.569 5.30869 1
    endloop
  endfacet
  facet normal 0 0 1
    outer loop
      vertex 113.5 12 1
      vertex 200.933 2.86453 1
      vertex 199.122 3.90982 1
    endloop
  endfacet
  facet normal 0 0 1
    outer loop
      vertex 113.5 12 1
      vertex 202.921 2.21852 1
      vertex 200.933 2.86453 1
    endloop
  endfacet
  facet normal 0 0 1
    outer loop
      vertex 32 12 1
      vertex 62.6561 70.9465 1
      vertex 62.3279 77.2097 1
    endloop
  endfacet
  facet normal 0 0 1
    outer loop
      vertex 32 12 1
      vertex 64.2794 64.8885 1
      vertex 62.6561 70.9465 1
    endloop
  endfacet
  facet normal 0 0 1
    outer loop
      vertex 32 12 1
      vertex 67.1267 59.3004 1
      vertex 64.2794 64.8885 1
    endloop
  endfacet
  facet normal 0 0 1
    outer loop
      vertex 32 12 1
      vertex 71.0736 54.4264 1
      vertex 67.1267 59.3004 1
    endloop
  endfacet
  facet normal 0 0 1
    outer loop
      vertex 32 12 1
      vertex 113.5 12 1
      vertex 71.0736 54.4264 1
    endloop
  endfacet
  facet normal 0 0 1
    outer loop
      vertex 31.7815 9.92087 1
      vertex 113.5 12 1
      vertex 32 12 1
    endloop
  endfacet
  facet normal 0 0 1
    outer loop
      vertex 31.1355 7.93263 1
      vertex 113.5 12 1
      vertex 31.7815 9.92087 1
    endloop
  endfacet
  facet normal 0 0 1
    outer loop
      vertex 30.0902 6.12215 1
      vertex 113.5 12 1
      vertex 31.1355 7.93263 1
    endloop
  endfacet
  facet normal 0 0 1
    outer loop
      vertex 28.6913 4.56854 1
      vertex 113.5 12 1
      vertex 30.0902 6.12215 1
    endloop
  endfacet
  facet normal 0 0 1
    outer loop
      vertex 27 3.33974 1
      vertex 113.5 12 1
      vertex 28.6913 4.56854 1
    endloop
  endfacet
  facet normal 0 0 1
    outer loop
      vertex 25.0902 2.48943 1
      vertex 113.5 12 1
      vertex 27 3.33974 1
    endloop
  endfacet
  facet normal 0 0 1
    outer loop
      vertex 113.5 12 1
      vertex 25.0902 2.48943 1
      vertex 202.921 2.21852 1
    endloop
  endfacet
  facet normal 0 0 1
    outer loop
      vertex 23.0453 2.05478 1
      vertex 202.921 2.21852 1
      vertex 25.0902 2.48943 1
    endloop
  endfacet
  facet normal 0 0 1
    outer loop
      vertex 202.921 2.21852 1
      vertex 23.0453 2.05478 1
      vertex 205 2 1
    endloop
  endfacet
  facet normal 0 0 1
    outer loop
      vertex 205 2 1
      vertex 23.0453 2.05478 1
      vertex 226 1 1
    endloop
  endfacet
  facet normal 0 0 1
    outer loop
      vertex 22 2 1
      vertex 23.0453 2.05478 1
      vertex 22 2.05478 1
    endloop
  endfacet
  facet normal 0 0 1
    outer loop
      vertex 23.0453 2.05478 1
      vertex 22 2 1
      vertex 226 1 1
    endloop
  endfacet
  facet normal 0 0 1
    outer loop
      vertex 1 1 1
      vertex 22 2 1
      vertex 2 2 1
    endloop
  endfacet
  facet normal 0 0 1
    outer loop
      vertex 22 2 1
      vertex 1 1 1
      vertex 226 1 1
    endloop
  endfacet
  facet normal 0 0 1
    outer loop
      vertex 2 22 1
      vertex 1 1 1
      vertex 2 2 1
    endloop
  endfacet
  facet normal 0 0 1
    outer loop
      vertex 225 22 1
      vertex 224.945 23.0453 1
      vertex 224.945 22 1
    endloop
  endfacet
  facet normal 0 0 1
    outer loop
      vertex 23.0453 21.9452 1
      vertex 22 22 1
      vertex 22 21.9452 1
    endloop
  endfacet
  facet normal 0 1 -0
    outer loop
      vertex 226 1 1
      vertex 1 1 91
      vertex 226 1 91
    endloop
  endfacet
  facet normal 0 1 0
    outer loop
      vertex 1 1 91
      vertex 226 1 1
      vertex 1 1 1
    endloop
  endfacet
  facet normal 0 0 -1
    outer loop
      vertex 158.028 56.76 0
      vertex 155.926 54.4264 0
      vertex 155.81 54.5426 0
    endloop
  endfacet
  facet normal -0 0 -1
    outer loop
      vertex 23.0453 2.05478 0
      vertex 22 2 0
      vertex 22 2.05478 0
    endloop
  endfacet
  facet normal 0 0 -1
    outer loop
      vertex 205.055 22 0
      vertex 205 22 0
      vertex 205.055 23.0453 0
    endloop
  endfacet
  facet normal 0 0 -1
    outer loop
      vertex 225 22 0
      vertex 227 0 0
      vertex 225 2 0
    endloop
  endfacet
  facet normal 0 0 -1
    outer loop
      vertex 227 0 0
      vertex 205 2 0
      vertex 225 2 0
    endloop
  endfacet
  facet normal 0 0 -1
    outer loop
      vertex 113.5 12 0
      vertex 195.055 13.0453 0
      vertex 195.055 10.9547 0
    endloop
  endfacet
  facet normal 0 0 -1
    outer loop
      vertex 113.5 12 0
      vertex 195.055 10.9547 0
      vertex 195.489 8.90982 0
    endloop
  endfacet
  facet normal 0 0 -1
    outer loop
      vertex 113.5 12 0
      vertex 195.489 8.90982 0
      vertex 196.34 7 0
    endloop
  endfacet
  facet normal 0 0 -1
    outer loop
      vertex 195.055 13.0453 0
      vertex 163.691 67.875 0
      vertex 164.672 74.0695 0
    endloop
  endfacet
  facet normal 0 0 -1
    outer loop
      vertex 195.055 13.0453 0
      vertex 161.443 62.0199 0
      vertex 163.691 67.875 0
    endloop
  endfacet
  facet normal 0 0 -1
    outer loop
      vertex 195.055 13.0453 0
      vertex 158.028 56.76 0
      vertex 161.443 62.0199 0
    endloop
  endfacet
  facet normal 0 0 -1
    outer loop
      vertex 113.5 12 0
      vertex 196.34 7 0
      vertex 197.569 5.30869 0
    endloop
  endfacet
  facet normal 0 0 -1
    outer loop
      vertex 195.055 13.0453 0
      vertex 155.926 54.4264 0
      vertex 158.028 56.76 0
    endloop
  endfacet
  facet normal -0 0 -1
    outer loop
      vertex 195.055 13.0453 0
      vertex 113.5 12 0
      vertex 155.926 54.4264 0
    endloop
  endfacet
  facet normal 0 0 -1
    outer loop
      vertex 199.122 3.90982 0
      vertex 113.5 12 0
      vertex 197.569 5.30869 0
    endloop
  endfacet
  facet normal 0 0 -1
    outer loop
      vertex 200.933 2.86453 0
      vertex 113.5 12 0
      vertex 199.122 3.90982 0
    endloop
  endfacet
  facet normal 0 0 -1
    outer loop
      vertex 202.921 2.21852 0
      vertex 113.5 12 0
      vertex 200.933 2.86453 0
    endloop
  endfacet
  facet normal 0 0 -1
    outer loop
      vertex 28.6913 19.4314 0
      vertex 71.0736 54.4264 0
      vertex 30.0902 17.8778 0
    endloop
  endfacet
  facet normal 0 0 -1
    outer loop
      vertex 30.0902 17.8778 0
      vertex 71.0736 54.4264 0
      vertex 31.1355 16.0674 0
    endloop
  endfacet
  facet normal 0 0 -1
    outer loop
      vertex 31.1355 16.0674 0
      vertex 71.0736 54.4264 0
      vertex 31.7815 14.0791 0
    endloop
  endfacet
  facet normal 0 0 -1
    outer loop
      vertex 31.7815 14.0791 0
      vertex 71.0736 54.4264 0
      vertex 32 12 0
    endloop
  endfacet
  facet normal 0 0 -1
    outer loop
      vertex 113.5 12 0
      vertex 32 12 0
      vertex 71.0736 54.4264 0
    endloop
  endfacet
  facet normal 0 0 -1
    outer loop
      vertex 25.0902 2.48943 0
      vertex 113.5 12 0
      vertex 202.921 2.21852 0
    endloop
  endfacet
  facet normal 0 0 -1
    outer loop
      vertex 23.0453 2.05478 0
      vertex 202.921 2.21852 0
      vertex 205 2 0
    endloop
  endfacet
  facet normal 0 0 -1
    outer loop
      vertex 23.0453 2.05478 0
      vertex 205 2 0
      vertex 227 0 0
    endloop
  endfacet
  facet normal -0 0 -1
    outer loop
      vertex 113.5 12 0
      vertex 31.7815 9.92087 0
      vertex 32 12 0
    endloop
  endfacet
  facet normal 0 0 -1
    outer loop
      vertex 113.5 12 0
      vertex 31.1355 7.93263 0
      vertex 31.7815 9.92087 0
    endloop
  endfacet
  facet normal 0 0 -1
    outer loop
      vertex 113.5 12 0
      vertex 30.0902 6.12215 0
      vertex 31.1355 7.93263 0
    endloop
  endfacet
  facet normal 0 0 -1
    outer loop
      vertex 113.5 12 0
      vertex 28.6913 4.56854 0
      vertex 30.0902 6.12215 0
    endloop
  endfacet
  facet normal 0 0 -1
    outer loop
      vertex 113.5 12 0
      vertex 27 3.33974 0
      vertex 28.6913 4.56854 0
    endloop
  endfacet
  facet normal 0 0 -1
    outer loop
      vertex 113.5 12 0
      vertex 25.0902 2.48943 0
      vertex 27 3.33974 0
    endloop
  endfacet
  facet normal -0 0 -1
    outer loop
      vertex 202.921 2.21852 0
      vertex 23.0453 2.05478 0
      vertex 25.0902 2.48943 0
    endloop
  endfacet
  facet normal 0 0 -1
    outer loop
      vertex 0 0 0
      vertex 23.0453 2.05478 0
      vertex 227 0 0
    endloop
  endfacet
  facet normal 0 0 -1
    outer loop
      vertex 23.0453 2.05478 0
      vertex 0 0 0
      vertex 22 2 0
    endloop
  endfacet
  facet normal -0 0 -1
    outer loop
      vertex 2 2 0
      vertex 0 0 0
      vertex 2 22 0
    endloop
  endfacet
  facet normal -0 0 -1
    outer loop
      vertex 22 2 0
      vertex 0 0 0
      vertex 2 2 0
    endloop
  endfacet
  facet normal 0 0 -1
    outer loop
      vertex 224.945 23.0453 0
      vertex 227 0 0
      vertex 225 22 0
    endloop
  endfacet
  facet normal 0 0 -1
    outer loop
      vertex 224.945 23.0453 0
      vertex 225 22 0
      vertex 224.945 22 0
    endloop
  endfacet
  facet normal 0 0 -1
    outer loop
      vertex 227 0 0
      vertex 224.945 23.0453 0
      vertex 227 122 0
    endloop
  endfacet
  facet normal 0 0 -1
    outer loop
      vertex 224.511 25.0902 0
      vertex 227 122 0
      vertex 224.945 23.0453 0
    endloop
  endfacet
  facet normal 0 0 -1
    outer loop
      vertex 223.66 27 0
      vertex 227 122 0
      vertex 224.511 25.0902 0
    endloop
  endfacet
  facet normal 0 0 -1
    outer loop
      vertex 222.431 28.6913 0
      vertex 227 122 0
      vertex 223.66 27 0
    endloop
  endfacet
  facet normal 0 0 -1
    outer loop
      vertex 220.878 30.0902 0
      vertex 227 122 0
      vertex 222.431 28.6913 0
    endloop
  endfacet
  facet normal 0 0 -1
    outer loop
      vertex 219.067 31.1355 0
      vertex 227 122 0
      vertex 220.878 30.0902 0
    endloop
  endfacet
  facet normal 0 0 -1
    outer loop
      vertex 217.079 31.7815 0
      vertex 227 122 0
      vertex 219.067 31.1355 0
    endloop
  endfacet
  facet normal 0 0 -1
    outer loop
      vertex 215 32 0
      vertex 227 122 0
      vertex 217.079 31.7815 0
    endloop
  endfacet
  facet normal 0 0 -1
    outer loop
      vertex 164.672 74.0695 0
      vertex 215 32 0
      vertex 212.921 31.7815 0
    endloop
  endfacet
  facet normal 0 0 -1
    outer loop
      vertex 164.672 74.0695 0
      vertex 212.921 31.7815 0
      vertex 210.933 31.1355 0
    endloop
  endfacet
  facet normal 0 0 -1
    outer loop
      vertex 164.672 74.0695 0
      vertex 210.933 31.1355 0
      vertex 209.122 30.0902 0
    endloop
  endfacet
  facet normal 0 0 -1
    outer loop
      vertex 164.672 74.0695 0
      vertex 209.122 30.0902 0
      vertex 207.569 28.6913 0
    endloop
  endfacet
  facet normal 0 0 -1
    outer loop
      vertex 164.672 74.0695 0
      vertex 207.569 28.6913 0
      vertex 206.34 27 0
    endloop
  endfacet
  facet normal 0 0 -1
    outer loop
      vertex 200.933 21.1355 0
      vertex 206.34 27 0
      vertex 205.489 25.0902 0
    endloop
  endfacet
  facet normal 0 0 -1
    outer loop
      vertex 202.921 21.7815 0
      vertex 205.055 23.0453 0
      vertex 205 22 0
    endloop
  endfacet
  facet normal 0 0 -1
    outer loop
      vertex 202.921 21.7815 0
      vertex 205.489 25.0902 0
      vertex 205.055 23.0453 0
    endloop
  endfacet
  facet normal 0 0 -1
    outer loop
      vertex 200.933 21.1355 0
      vertex 205.489 25.0902 0
      vertex 202.921 21.7815 0
    endloop
  endfacet
  facet normal 0 0 -1
    outer loop
      vertex 206.34 27 0
      vertex 200.933 21.1355 0
      vertex 199.122 20.0902 0
    endloop
  endfacet
  facet normal -0 0 -1
    outer loop
      vertex 206.34 27 0
      vertex 199.122 20.0902 0
      vertex 164.672 74.0695 0
    endloop
  endfacet
  facet normal 0 0 -1
    outer loop
      vertex 164.672 74.0695 0
      vertex 199.122 20.0902 0
      vertex 197.569 18.6913 0
    endloop
  endfacet
  facet normal 0 0 -1
    outer loop
      vertex 164.672 74.0695 0
      vertex 197.569 18.6913 0
      vertex 196.34 17 0
    endloop
  endfacet
  facet normal 0 0 -1
    outer loop
      vertex 164.672 74.0695 0
      vertex 196.34 17 0
      vertex 195.489 15.0902 0
    endloop
  endfacet
  facet normal 0 0 -1
    outer loop
      vertex 164.672 74.0695 0
      vertex 195.489 15.0902 0
      vertex 195.055 13.0453 0
    endloop
  endfacet
  facet normal 0 0 -1
    outer loop
      vertex 215 32 0
      vertex 164.672 74.0695 0
      vertex 227 122 0
    endloop
  endfacet
  facet normal 0 0 -1
    outer loop
      vertex 164.344 80.3326 0
      vertex 227 122 0
      vertex 164.672 74.0695 0
    endloop
  endfacet
  facet normal 0 0 -1
    outer loop
      vertex 162.721 86.3906 0
      vertex 227 122 0
      vertex 164.344 80.3326 0
    endloop
  endfacet
  facet normal 0 0 -1
    outer loop
      vertex 159.873 91.9787 0
      vertex 227 122 0
      vertex 162.721 86.3906 0
    endloop
  endfacet
  facet normal 0 0 -1
    outer loop
      vertex 155.926 96.8528 0
      vertex 227 122 0
      vertex 159.873 91.9787 0
    endloop
  endfacet
  facet normal 0 0 -1
    outer loop
      vertex 151.052 100.8 0
      vertex 227 122 0
      vertex 155.926 96.8528 0
    endloop
  endfacet
  facet normal 0 0 -1
    outer loop
      vertex 145.464 103.647 0
      vertex 227 122 0
      vertex 151.052 100.8 0
    endloop
  endfacet
  facet normal 0 0 -1
    outer loop
      vertex 139.406 105.27 0
      vertex 227 122 0
      vertex 145.464 103.647 0
    endloop
  endfacet
  facet normal 0 0 -1
    outer loop
      vertex 133.143 105.598 0
      vertex 227 122 0
      vertex 139.406 105.27 0
    endloop
  endfacet
  facet normal 0 0 -1
    outer loop
      vertex 96.9798 105.27 0
      vertex 133.143 105.598 0
      vertex 126.949 104.617 0
    endloop
  endfacet
  facet normal 0 0 -1
    outer loop
      vertex 113.5 96.8528 0
      vertex 115.834 98.9539 0
      vertex 113.616 96.7366 0
    endloop
  endfacet
  facet normal 0 0 -1
    outer loop
      vertex 108.626 100.8 0
      vertex 115.834 98.9539 0
      vertex 113.5 96.8528 0
    endloop
  endfacet
  facet normal 0 0 -1
    outer loop
      vertex 108.626 100.8 0
      vertex 121.093 102.37 0
      vertex 115.834 98.9539 0
    endloop
  endfacet
  facet normal 0 0 -1
    outer loop
      vertex 103.038 103.647 0
      vertex 121.093 102.37 0
      vertex 108.626 100.8 0
    endloop
  endfacet
  facet normal 0 0 -1
    outer loop
      vertex 121.093 102.37 0
      vertex 103.038 103.647 0
      vertex 126.949 104.617 0
    endloop
  endfacet
  facet normal 0 0 -1
    outer loop
      vertex 96.9798 105.27 0
      vertex 126.949 104.617 0
      vertex 103.038 103.647 0
    endloop
  endfacet
  facet normal -0 0 -1
    outer loop
      vertex 133.143 105.598 0
      vertex 96.9798 105.27 0
      vertex 227 122 0
    endloop
  endfacet
  facet normal 0 0 -1
    outer loop
      vertex 90.7167 105.598 0
      vertex 227 122 0
      vertex 96.9798 105.27 0
    endloop
  endfacet
  facet normal -0 0 -1
    outer loop
      vertex 71.0736 54.4264 0
      vertex 28.6913 19.4314 0
      vertex 67.1267 59.3004 0
    endloop
  endfacet
  facet normal 0 0 -1
    outer loop
      vertex 27 20.6602 0
      vertex 67.1267 59.3004 0
      vertex 28.6913 19.4314 0
    endloop
  endfacet
  facet normal 0 0 -1
    outer loop
      vertex 20.0902 27.8778 0
      vertex 67.1267 59.3004 0
      vertex 27 20.6602 0
    endloop
  endfacet
  facet normal 0 0 -1
    outer loop
      vertex 18.6913 29.4314 0
      vertex 67.1267 59.3004 0
      vertex 20.0902 27.8778 0
    endloop
  endfacet
  facet normal 0 0 -1
    outer loop
      vertex 17 30.6602 0
      vertex 64.2794 64.8885 0
      vertex 18.6913 29.4314 0
    endloop
  endfacet
  facet normal -0 0 -1
    outer loop
      vertex 64.2794 64.8885 0
      vertex 17 30.6602 0
      vertex 62.6561 70.9465 0
    endloop
  endfacet
  facet normal -0 0 -1
    outer loop
      vertex 67.1267 59.3004 0
      vertex 18.6913 29.4314 0
      vertex 64.2794 64.8885 0
    endloop
  endfacet
  facet normal 0 0 -1
    outer loop
      vertex 21.1355 26.0674 0
      vertex 27 20.6602 0
      vertex 25.0902 21.5106 0
    endloop
  endfacet
  facet normal 0 0 -1
    outer loop
      vertex 21.7815 24.0791 0
      vertex 25.0902 21.5106 0
      vertex 23.0453 21.9452 0
    endloop
  endfacet
  facet normal 0 0 -1
    outer loop
      vertex 22 22 0
      vertex 23.0453 21.9452 0
      vertex 22 21.9452 0
    endloop
  endfacet
  facet normal 0 0 -1
    outer loop
      vertex 21.7815 24.0791 0
      vertex 23.0453 21.9452 0
      vertex 22 22 0
    endloop
  endfacet
  facet normal 0 0 -1
    outer loop
      vertex 25.0902 21.5106 0
      vertex 21.7815 24.0791 0
      vertex 21.1355 26.0674 0
    endloop
  endfacet
  facet normal 0 0 -1
    outer loop
      vertex 27 20.6602 0
      vertex 21.1355 26.0674 0
      vertex 20.0902 27.8778 0
    endloop
  endfacet
  facet normal 0 0 -1
    outer loop
      vertex 15.0902 31.5106 0
      vertex 62.6561 70.9465 0
      vertex 17 30.6602 0
    endloop
  endfacet
  facet normal 0 0 -1
    outer loop
      vertex 13.0453 31.9452 0
      vertex 62.6561 70.9465 0
      vertex 15.0902 31.5106 0
    endloop
  endfacet
  facet normal -0 0 -1
    outer loop
      vertex 62.6561 70.9465 0
      vertex 13.0453 31.9452 0
      vertex 62.3279 77.2097 0
    endloop
  endfacet
  facet normal 0 0 -1
    outer loop
      vertex 0 122 0
      vertex 62.3279 77.2097 0
      vertex 13.0453 31.9452 0
    endloop
  endfacet
  facet normal 0 0 -1
    outer loop
      vertex 62.3279 77.2097 0
      vertex 0 122 0
      vertex 63.309 83.4042 0
    endloop
  endfacet
  facet normal 0 0 -1
    outer loop
      vertex 63.309 83.4042 0
      vertex 0 122 0
      vertex 65.5566 89.2593 0
    endloop
  endfacet
  facet normal 0 0 -1
    outer loop
      vertex 0 122 0
      vertex 13.0453 31.9452 0
      vertex 10.9547 31.9452 0
    endloop
  endfacet
  facet normal 0 0 -1
    outer loop
      vertex 0 122 0
      vertex 10.9547 31.9452 0
      vertex 8.90982 31.5106 0
    endloop
  endfacet
  facet normal 0 0 -1
    outer loop
      vertex 0 122 0
      vertex 8.90982 31.5106 0
      vertex 7 30.6602 0
    endloop
  endfacet
  facet normal 0 0 -1
    outer loop
      vertex 0 122 0
      vertex 7 30.6602 0
      vertex 5.30869 29.4314 0
    endloop
  endfacet
  facet normal 0 0 -1
    outer loop
      vertex 90.7167 105.598 0
      vertex 0 122 0
      vertex 227 122 0
    endloop
  endfacet
  facet normal 0 0 -1
    outer loop
      vertex 84.5222 104.617 0
      vertex 0 122 0
      vertex 90.7167 105.598 0
    endloop
  endfacet
  facet normal 0 0 -1
    outer loop
      vertex 78.6671 102.37 0
      vertex 0 122 0
      vertex 84.5222 104.617 0
    endloop
  endfacet
  facet normal 0 0 -1
    outer loop
      vertex 73.4072 98.9539 0
      vertex 0 122 0
      vertex 78.6671 102.37 0
    endloop
  endfacet
  facet normal 0 0 -1
    outer loop
      vertex 68.9724 94.5192 0
      vertex 0 122 0
      vertex 73.4072 98.9539 0
    endloop
  endfacet
  facet normal 0 0 -1
    outer loop
      vertex 65.5566 89.2593 0
      vertex 0 122 0
      vertex 68.9724 94.5192 0
    endloop
  endfacet
  facet normal 0 0 -1
    outer loop
      vertex 3.90982 27.8778 0
      vertex 0 122 0
      vertex 5.30869 29.4314 0
    endloop
  endfacet
  facet normal 0 0 -1
    outer loop
      vertex 2.86453 26.0674 0
      vertex 0 122 0
      vertex 3.90982 27.8778 0
    endloop
  endfacet
  facet normal 0 0 -1
    outer loop
      vertex 2.21852 24.0791 0
      vertex 0 122 0
      vertex 2.86453 26.0674 0
    endloop
  endfacet
  facet normal 0 0 -1
    outer loop
      vertex 2 22 0
      vertex 0 122 0
      vertex 2.21852 24.0791 0
    endloop
  endfacet
  facet normal 0 0 -1
    outer loop
      vertex 0 122 0
      vertex 2 22 0
      vertex 0 0 0
    endloop
  endfacet
  facet normal -0.70706 -0.707153 0
    outer loop
      vertex 155.81 54.5426 0
      vertex 155.926 54.4264 1
      vertex 155.81 54.5426 1
    endloop
  endfacet
  facet normal -0.70706 -0.707153 -0
    outer loop
      vertex 155.926 54.4264 1
      vertex 155.81 54.5426 0
      vertex 155.926 54.4264 0
    endloop
  endfacet
  facet normal -0.707107 0.707107 0
    outer loop
      vertex 155.81 54.5426 0
      vertex 158.028 56.76 1
      vertex 158.028 56.76 0
    endloop
  endfacet
  facet normal -0.707107 0.707107 0
    outer loop
      vertex 158.028 56.76 1
      vertex 155.81 54.5426 0
      vertex 155.81 54.5426 1
    endloop
  endfacet
  facet normal -0.838668 0.544643 0
    outer loop
      vertex 158.028 56.76 0
      vertex 161.443 62.0199 1
      vertex 161.443 62.0199 0
    endloop
  endfacet
  facet normal -0.838668 0.544643 0
    outer loop
      vertex 161.443 62.0199 1
      vertex 158.028 56.76 0
      vertex 158.028 56.76 1
    endloop
  endfacet
  facet normal -0.93358 0.358368 0
    outer loop
      vertex 161.443 62.0199 0
      vertex 163.691 67.875 1
      vertex 163.691 67.875 0
    endloop
  endfacet
  facet normal -0.93358 0.358368 0
    outer loop
      vertex 163.691 67.875 1
      vertex 161.443 62.0199 0
      vertex 161.443 62.0199 1
    endloop
  endfacet
  facet normal -0.987689 0.156432 0
    outer loop
      vertex 163.691 67.875 0
      vertex 164.672 74.0695 1
      vertex 164.672 74.0695 0
    endloop
  endfacet
  facet normal -0.987689 0.156432 0
    outer loop
      vertex 164.672 74.0695 1
      vertex 163.691 67.875 0
      vertex 163.691 67.875 1
    endloop
  endfacet
  facet normal -0.998629 -0.0523375 0
    outer loop
      vertex 164.672 74.0695 0
      vertex 164.344 80.3326 1
      vertex 164.344 80.3326 0
    endloop
  endfacet
  facet normal -0.998629 -0.0523375 0
    outer loop
      vertex 164.344 80.3326 1
      vertex 164.672 74.0695 0
      vertex 164.672 74.0695 1
    endloop
  endfacet
  facet normal -0.965926 -0.258818 0
    outer loop
      vertex 164.344 80.3326 0
      vertex 162.721 86.3906 1
      vertex 162.721 86.3906 0
    endloop
  endfacet
  facet normal -0.965926 -0.258818 0
    outer loop
      vertex 162.721 86.3906 1
      vertex 164.344 80.3326 0
      vertex 164.344 80.3326 1
    endloop
  endfacet
  facet normal -0.891005 -0.453994 0
    outer loop
      vertex 162.721 86.3906 0
      vertex 159.873 91.9787 1
      vertex 159.873 91.9787 0
    endloop
  endfacet
  facet normal -0.891005 -0.453994 0
    outer loop
      vertex 159.873 91.9787 1
      vertex 162.721 86.3906 0
      vertex 162.721 86.3906 1
    endloop
  endfacet
  facet normal -0.77715 -0.629315 0
    outer loop
      vertex 159.873 91.9787 0
      vertex 155.926 96.8528 1
      vertex 155.926 96.8528 0
    endloop
  endfacet
  facet normal -0.77715 -0.629315 0
    outer loop
      vertex 155.926 96.8528 1
      vertex 159.873 91.9787 0
      vertex 159.873 91.9787 1
    endloop
  endfacet
  facet normal -0.629315 -0.777151 0
    outer loop
      vertex 151.052 100.8 0
      vertex 155.926 96.8528 1
      vertex 151.052 100.8 1
    endloop
  endfacet
  facet normal -0.629315 -0.777151 -0
    outer loop
      vertex 155.926 96.8528 1
      vertex 151.052 100.8 0
      vertex 155.926 96.8528 0
    endloop
  endfacet
  facet normal -0.453994 -0.891005 0
    outer loop
      vertex 145.464 103.647 0
      vertex 151.052 100.8 1
      vertex 145.464 103.647 1
    endloop
  endfacet
  facet normal -0.453994 -0.891005 -0
    outer loop
      vertex 151.052 100.8 1
      vertex 145.464 103.647 0
      vertex 151.052 100.8 0
    endloop
  endfacet
  facet normal -0.258815 -0.965927 0
    outer loop
      vertex 139.406 105.27 0
      vertex 145.464 103.647 1
      vertex 139.406 105.27 1
    endloop
  endfacet
  facet normal -0.258815 -0.965927 -0
    outer loop
      vertex 145.464 103.647 1
      vertex 139.406 105.27 0
      vertex 145.464 103.647 0
    endloop
  endfacet
  facet normal -0.05234 -0.998629 0
    outer loop
      vertex 133.143 105.598 0
      vertex 139.406 105.27 1
      vertex 133.143 105.598 1
    endloop
  endfacet
  facet normal -0.05234 -0.998629 -0
    outer loop
      vertex 139.406 105.27 1
      vertex 133.143 105.598 0
      vertex 139.406 105.27 0
    endloop
  endfacet
  facet normal 0.156432 -0.987689 0
    outer loop
      vertex 126.949 104.617 0
      vertex 133.143 105.598 1
      vertex 126.949 104.617 1
    endloop
  endfacet
  facet normal 0.156432 -0.987689 0
    outer loop
      vertex 133.143 105.598 1
      vertex 126.949 104.617 0
      vertex 133.143 105.598 0
    endloop
  endfacet
  facet normal 0.35837 -0.933579 0
    outer loop
      vertex 121.093 102.37 0
      vertex 126.949 104.617 1
      vertex 121.093 102.37 1
    endloop
  endfacet
  facet normal 0.35837 -0.933579 0
    outer loop
      vertex 126.949 104.617 1
      vertex 121.093 102.37 0
      vertex 126.949 104.617 0
    endloop
  endfacet
  facet normal 0.544641 -0.838669 0
    outer loop
      vertex 115.834 98.9539 0
      vertex 121.093 102.37 1
      vertex 115.834 98.9539 1
    endloop
  endfacet
  facet normal 0.544641 -0.838669 0
    outer loop
      vertex 121.093 102.37 1
      vertex 115.834 98.9539 0
      vertex 121.093 102.37 0
    endloop
  endfacet
  facet normal 0.707107 -0.707107 0
    outer loop
      vertex 113.616 96.7366 1
      vertex 115.834 98.9539 0
      vertex 115.834 98.9539 1
    endloop
  endfacet
  facet normal 0.707107 -0.707107 0
    outer loop
      vertex 115.834 98.9539 0
      vertex 113.616 96.7366 1
      vertex 113.616 96.7366 0
    endloop
  endfacet
  facet normal -0.707153 -0.70706 0
    outer loop
      vertex 113.616 96.7366 0
      vertex 113.5 96.8528 1
      vertex 113.5 96.8528 0
    endloop
  endfacet
  facet normal -0.707153 -0.70706 0
    outer loop
      vertex 113.5 96.8528 1
      vertex 113.616 96.7366 0
      vertex 113.616 96.7366 1
    endloop
  endfacet
  facet normal -0.629315 -0.777151 0
    outer loop
      vertex 108.626 100.8 0
      vertex 113.5 96.8528 1
      vertex 108.626 100.8 1
    endloop
  endfacet
  facet normal -0.629315 -0.777151 -0
    outer loop
      vertex 113.5 96.8528 1
      vertex 108.626 100.8 0
      vertex 113.5 96.8528 0
    endloop
  endfacet
  facet normal -0.453994 -0.891005 0
    outer loop
      vertex 103.038 103.647 0
      vertex 108.626 100.8 1
      vertex 103.038 103.647 1
    endloop
  endfacet
  facet normal -0.453994 -0.891005 -0
    outer loop
      vertex 108.626 100.8 1
      vertex 103.038 103.647 0
      vertex 108.626 100.8 0
    endloop
  endfacet
  facet normal -0.258815 -0.965927 0
    outer loop
      vertex 96.9798 105.27 0
      vertex 103.038 103.647 1
      vertex 96.9798 105.27 1
    endloop
  endfacet
  facet normal -0.258815 -0.965927 -0
    outer loop
      vertex 103.038 103.647 1
      vertex 96.9798 105.27 0
      vertex 103.038 103.647 0
    endloop
  endfacet
  facet normal -0.05234 -0.998629 0
    outer loop
      vertex 90.7167 105.598 0
      vertex 96.9798 105.27 1
      vertex 90.7167 105.598 1
    endloop
  endfacet
  facet normal -0.05234 -0.998629 -0
    outer loop
      vertex 96.9798 105.27 1
      vertex 90.7167 105.598 0
      vertex 96.9798 105.27 0
    endloop
  endfacet
  facet normal 0.156432 -0.987689 0
    outer loop
      vertex 84.5222 104.617 0
      vertex 90.7167 105.598 1
      vertex 84.5222 104.617 1
    endloop
  endfacet
  facet normal 0.156432 -0.987689 0
    outer loop
      vertex 90.7167 105.598 1
      vertex 84.5222 104.617 0
      vertex 90.7167 105.598 0
    endloop
  endfacet
  facet normal 0.35837 -0.933579 0
    outer loop
      vertex 78.6671 102.37 0
      vertex 84.5222 104.617 1
      vertex 78.6671 102.37 1
    endloop
  endfacet
  facet normal 0.35837 -0.933579 0
    outer loop
      vertex 84.5222 104.617 1
      vertex 78.6671 102.37 0
      vertex 84.5222 104.617 0
    endloop
  endfacet
  facet normal 0.544641 -0.838669 0
    outer loop
      vertex 73.4072 98.9539 0
      vertex 78.6671 102.37 1
      vertex 73.4072 98.9539 1
    endloop
  endfacet
  facet normal 0.544641 -0.838669 0
    outer loop
      vertex 78.6671 102.37 1
      vertex 73.4072 98.9539 0
      vertex 78.6671 102.37 0
    endloop
  endfacet
  facet normal 0.707107 -0.707107 0
    outer loop
      vertex 68.9724 94.5192 1
      vertex 73.4072 98.9539 0
      vertex 73.4072 98.9539 1
    endloop
  endfacet
  facet normal 0.707107 -0.707107 0
    outer loop
      vertex 73.4072 98.9539 0
      vertex 68.9724 94.5192 1
      vertex 68.9724 94.5192 0
    endloop
  endfacet
  facet normal 0.838669 -0.544642 0
    outer loop
      vertex 65.5566 89.2593 1
      vertex 68.9724 94.5192 0
      vertex 68.9724 94.5192 1
    endloop
  endfacet
  facet normal 0.838669 -0.544642 0
    outer loop
      vertex 68.9724 94.5192 0
      vertex 65.5566 89.2593 1
      vertex 65.5566 89.2593 0
    endloop
  endfacet
  facet normal 0.933581 -0.358366 0
    outer loop
      vertex 63.309 83.4042 1
      vertex 65.5566 89.2593 0
      vertex 65.5566 89.2593 1
    endloop
  endfacet
  facet normal 0.933581 -0.358366 0
    outer loop
      vertex 65.5566 89.2593 0
      vertex 63.309 83.4042 1
      vertex 63.309 83.4042 0
    endloop
  endfacet
  facet normal 0.987688 -0.156436 0
    outer loop
      vertex 62.3279 77.2097 1
      vertex 63.309 83.4042 0
      vertex 63.309 83.4042 1
    endloop
  endfacet
  facet normal 0.987688 -0.156436 0
    outer loop
      vertex 63.309 83.4042 0
      vertex 62.3279 77.2097 1
      vertex 62.3279 77.2097 0
    endloop
  endfacet
  facet normal 0.998629 0.0523375 0
    outer loop
      vertex 62.6561 70.9465 1
      vertex 62.3279 77.2097 0
      vertex 62.3279 77.2097 1
    endloop
  endfacet
  facet normal 0.998629 0.0523375 0
    outer loop
      vertex 62.3279 77.2097 0
      vertex 62.6561 70.9465 1
      vertex 62.6561 70.9465 0
    endloop
  endfacet
  facet normal 0.965926 0.258818 0
    outer loop
      vertex 64.2794 64.8885 1
      vertex 62.6561 70.9465 0
      vertex 62.6561 70.9465 1
    endloop
  endfacet
  facet normal 0.965926 0.258818 0
    outer loop
      vertex 62.6561 70.9465 0
      vertex 64.2794 64.8885 1
      vertex 64.2794 64.8885 0
    endloop
  endfacet
  facet normal 0.891005 0.453994 0
    outer loop
      vertex 67.1267 59.3004 1
      vertex 64.2794 64.8885 0
      vertex 64.2794 64.8885 1
    endloop
  endfacet
  facet normal 0.891005 0.453994 0
    outer loop
      vertex 64.2794 64.8885 0
      vertex 67.1267 59.3004 1
      vertex 67.1267 59.3004 0
    endloop
  endfacet
  facet normal 0.777145 0.629321 0
    outer loop
      vertex 71.0736 54.4264 1
      vertex 67.1267 59.3004 0
      vertex 67.1267 59.3004 1
    endloop
  endfacet
  facet normal 0.777145 0.629321 0
    outer loop
      vertex 67.1267 59.3004 0
      vertex 71.0736 54.4264 1
      vertex 71.0736 54.4264 0
    endloop
  endfacet
  facet normal 0.707107 0.707107 -0
    outer loop
      vertex 113.5 12 0
      vertex 71.0736 54.4264 1
      vertex 113.5 12 1
    endloop
  endfacet
  facet normal 0.707107 0.707107 0
    outer loop
      vertex 71.0736 54.4264 1
      vertex 113.5 12 0
      vertex 71.0736 54.4264 0
    endloop
  endfacet
  facet normal -0.707107 0.707107 0
    outer loop
      vertex 113.5 12 0
      vertex 155.926 54.4264 1
      vertex 155.926 54.4264 0
    endloop
  endfacet
  facet normal -0.707107 0.707107 0
    outer loop
      vertex 155.926 54.4264 1
      vertex 113.5 12 0
      vertex 113.5 12 1
    endloop
  endfacet
  facet normal 0 -1 0
    outer loop
      vertex 224.945 22 0
      vertex 225 22 1
      vertex 224.945 22 1
    endloop
  endfacet
  facet normal 0 -1 -0
    outer loop
      vertex 225 22 1
      vertex 224.945 22 0
      vertex 225 22 0
    endloop
  endfacet
  facet normal -1 0 0
    outer loop
      vertex 224.945 22 0
      vertex 224.945 23.0453 1
      vertex 224.945 23.0453 0
    endloop
  endfacet
  facet normal -1 -0 0
    outer loop
      vertex 224.945 23.0453 1
      vertex 224.945 22 0
      vertex 224.945 22 1
    endloop
  endfacet
  facet normal -0.978148 -0.207908 0
    outer loop
      vertex 224.945 23.0453 0
      vertex 224.511 25.0902 1
      vertex 224.511 25.0902 0
    endloop
  endfacet
  facet normal -0.978148 -0.207908 0
    outer loop
      vertex 224.511 25.0902 1
      vertex 224.945 23.0453 0
      vertex 224.945 23.0453 1
    endloop
  endfacet
  facet normal -0.913546 -0.406736 0
    outer loop
      vertex 224.511 25.0902 0
      vertex 223.66 27 1
      vertex 223.66 27 0
    endloop
  endfacet
  facet normal -0.913546 -0.406736 0
    outer loop
      vertex 223.66 27 1
      vertex 224.511 25.0902 0
      vertex 224.511 25.0902 1
    endloop
  endfacet
  facet normal -0.809016 -0.587787 0
    outer loop
      vertex 223.66 27 0
      vertex 222.431 28.6913 1
      vertex 222.431 28.6913 0
    endloop
  endfacet
  facet normal -0.809016 -0.587787 0
    outer loop
      vertex 222.431 28.6913 1
      vertex 223.66 27 0
      vertex 223.66 27 1
    endloop
  endfacet
  facet normal -0.669129 -0.743146 0
    outer loop
      vertex 220.878 30.0902 0
      vertex 222.431 28.6913 1
      vertex 220.878 30.0902 1
    endloop
  endfacet
  facet normal -0.669129 -0.743146 -0
    outer loop
      vertex 222.431 28.6913 1
      vertex 220.878 30.0902 0
      vertex 222.431 28.6913 0
    endloop
  endfacet
  facet normal -0.500001 -0.866025 0
    outer loop
      vertex 219.067 31.1355 0
      vertex 220.878 30.0902 1
      vertex 219.067 31.1355 1
    endloop
  endfacet
  facet normal -0.500001 -0.866025 -0
    outer loop
      vertex 220.878 30.0902 1
      vertex 219.067 31.1355 0
      vertex 220.878 30.0902 0
    endloop
  endfacet
  facet normal -0.309015 -0.951057 0
    outer loop
      vertex 217.079 31.7815 0
      vertex 219.067 31.1355 1
      vertex 217.079 31.7815 1
    endloop
  endfacet
  facet normal -0.309015 -0.951057 -0
    outer loop
      vertex 219.067 31.1355 1
      vertex 217.079 31.7815 0
      vertex 219.067 31.1355 0
    endloop
  endfacet
  facet normal -0.104534 -0.994521 0
    outer loop
      vertex 215 32 0
      vertex 217.079 31.7815 1
      vertex 215 32 1
    endloop
  endfacet
  facet normal -0.104534 -0.994521 -0
    outer loop
      vertex 217.079 31.7815 1
      vertex 215 32 0
      vertex 217.079 31.7815 0
    endloop
  endfacet
  facet normal 0.104534 -0.994521 0
    outer loop
      vertex 212.921 31.7815 0
      vertex 215 32 1
      vertex 212.921 31.7815 1
    endloop
  endfacet
  facet normal 0.104534 -0.994521 0
    outer loop
      vertex 215 32 1
      vertex 212.921 31.7815 0
      vertex 215 32 0
    endloop
  endfacet
  facet normal 0.309015 -0.951057 0
    outer loop
      vertex 210.933 31.1355 0
      vertex 212.921 31.7815 1
      vertex 210.933 31.1355 1
    endloop
  endfacet
  facet normal 0.309015 -0.951057 0
    outer loop
      vertex 212.921 31.7815 1
      vertex 210.933 31.1355 0
      vertex 212.921 31.7815 0
    endloop
  endfacet
  facet normal 0.500001 -0.866025 0
    outer loop
      vertex 209.122 30.0902 0
      vertex 210.933 31.1355 1
      vertex 209.122 30.0902 1
    endloop
  endfacet
  facet normal 0.500001 -0.866025 0
    outer loop
      vertex 210.933 31.1355 1
      vertex 209.122 30.0902 0
      vertex 210.933 31.1355 0
    endloop
  endfacet
  facet normal 0.669129 -0.743146 0
    outer loop
      vertex 207.569 28.6913 0
      vertex 209.122 30.0902 1
      vertex 207.569 28.6913 1
    endloop
  endfacet
  facet normal 0.669129 -0.743146 0
    outer loop
      vertex 209.122 30.0902 1
      vertex 207.569 28.6913 0
      vertex 209.122 30.0902 0
    endloop
  endfacet
  facet normal 0.809016 -0.587787 0
    outer loop
      vertex 206.34 27 1
      vertex 207.569 28.6913 0
      vertex 207.569 28.6913 1
    endloop
  endfacet
  facet normal 0.809016 -0.587787 0
    outer loop
      vertex 207.569 28.6913 0
      vertex 206.34 27 1
      vertex 206.34 27 0
    endloop
  endfacet
  facet normal 0.913546 -0.406736 0
    outer loop
      vertex 205.489 25.0902 1
      vertex 206.34 27 0
      vertex 206.34 27 1
    endloop
  endfacet
  facet normal 0.913546 -0.406736 0
    outer loop
      vertex 206.34 27 0
      vertex 205.489 25.0902 1
      vertex 205.489 25.0902 0
    endloop
  endfacet
  facet normal 0.978148 -0.207908 0
    outer loop
      vertex 205.055 23.0453 1
      vertex 205.489 25.0902 0
      vertex 205.489 25.0902 1
    endloop
  endfacet
  facet normal 0.978148 -0.207908 0
    outer loop
      vertex 205.489 25.0902 0
      vertex 205.055 23.0453 1
      vertex 205.055 23.0453 0
    endloop
  endfacet
  facet normal 1 -0 0
    outer loop
      vertex 205.055 22 1
      vertex 205.055 23.0453 0
      vertex 205.055 23.0453 1
    endloop
  endfacet
  facet normal 1 0 0
    outer loop
      vertex 205.055 23.0453 0
      vertex 205.055 22 1
      vertex 205.055 22 0
    endloop
  endfacet
  facet normal 0 -1 0
    outer loop
      vertex 205 22 0
      vertex 205.055 22 1
      vertex 205 22 1
    endloop
  endfacet
  facet normal 0 -1 -0
    outer loop
      vertex 205.055 22 1
      vertex 205 22 0
      vertex 205.055 22 0
    endloop
  endfacet
  facet normal 0.104534 -0.994521 0
    outer loop
      vertex 202.921 21.7815 0
      vertex 205 22 1
      vertex 202.921 21.7815 1
    endloop
  endfacet
  facet normal 0.104534 -0.994521 0
    outer loop
      vertex 205 22 1
      vertex 202.921 21.7815 0
      vertex 205 22 0
    endloop
  endfacet
  facet normal 0.309015 -0.951057 0
    outer loop
      vertex 200.933 21.1355 0
      vertex 202.921 21.7815 1
      vertex 200.933 21.1355 1
    endloop
  endfacet
  facet normal 0.309015 -0.951057 0
    outer loop
      vertex 202.921 21.7815 1
      vertex 200.933 21.1355 0
      vertex 202.921 21.7815 0
    endloop
  endfacet
  facet normal 0.500001 -0.866025 0
    outer loop
      vertex 199.122 20.0902 0
      vertex 200.933 21.1355 1
      vertex 199.122 20.0902 1
    endloop
  endfacet
  facet normal 0.500001 -0.866025 0
    outer loop
      vertex 200.933 21.1355 1
      vertex 199.122 20.0902 0
      vertex 200.933 21.1355 0
    endloop
  endfacet
  facet normal 0.669129 -0.743146 0
    outer loop
      vertex 197.569 18.6913 0
      vertex 199.122 20.0902 1
      vertex 197.569 18.6913 1
    endloop
  endfacet
  facet normal 0.669129 -0.743146 0
    outer loop
      vertex 199.122 20.0902 1
      vertex 197.569 18.6913 0
      vertex 199.122 20.0902 0
    endloop
  endfacet
  facet normal 0.809016 -0.587787 0
    outer loop
      vertex 196.34 17 1
      vertex 197.569 18.6913 0
      vertex 197.569 18.6913 1
    endloop
  endfacet
  facet normal 0.809016 -0.587787 0
    outer loop
      vertex 197.569 18.6913 0
      vertex 196.34 17 1
      vertex 196.34 17 0
    endloop
  endfacet
  facet normal 0.913546 -0.406736 0
    outer loop
      vertex 195.489 15.0902 1
      vertex 196.34 17 0
      vertex 196.34 17 1
    endloop
  endfacet
  facet normal 0.913546 -0.406736 0
    outer loop
      vertex 196.34 17 0
      vertex 195.489 15.0902 1
      vertex 195.489 15.0902 0
    endloop
  endfacet
  facet normal 0.978148 -0.207908 0
    outer loop
      vertex 195.055 13.0453 1
      vertex 195.489 15.0902 0
      vertex 195.489 15.0902 1
    endloop
  endfacet
  facet normal 0.978148 -0.207908 0
    outer loop
      vertex 195.489 15.0902 0
      vertex 195.055 13.0453 1
      vertex 195.055 13.0453 0
    endloop
  endfacet
  facet normal 1 -0 0
    outer loop
      vertex 195.055 10.9547 1
      vertex 195.055 13.0453 0
      vertex 195.055 13.0453 1
    endloop
  endfacet
  facet normal 1 0 0
    outer loop
      vertex 195.055 13.0453 0
      vertex 195.055 10.9547 1
      vertex 195.055 10.9547 0
    endloop
  endfacet
  facet normal 0.978148 0.207908 0
    outer loop
      vertex 195.489 8.90982 1
      vertex 195.055 10.9547 0
      vertex 195.055 10.9547 1
    endloop
  endfacet
  facet normal 0.978148 0.207908 0
    outer loop
      vertex 195.055 10.9547 0
      vertex 195.489 8.90982 1
      vertex 195.489 8.90982 0
    endloop
  endfacet
  facet normal 0.913545 0.406738 0
    outer loop
      vertex 196.34 7 1
      vertex 195.489 8.90982 0
      vertex 195.489 8.90982 1
    endloop
  endfacet
  facet normal 0.913545 0.406738 0
    outer loop
      vertex 195.489 8.90982 0
      vertex 196.34 7 1
      vertex 196.34 7 0
    endloop
  endfacet
  facet normal 0.809018 0.587783 0
    outer loop
      vertex 197.569 5.30869 1
      vertex 196.34 7 0
      vertex 196.34 7 1
    endloop
  endfacet
  facet normal 0.809018 0.587783 0
    outer loop
      vertex 196.34 7 0
      vertex 197.569 5.30869 1
      vertex 197.569 5.30869 0
    endloop
  endfacet
  facet normal 0.669129 0.743146 -0
    outer loop
      vertex 199.122 3.90982 0
      vertex 197.569 5.30869 1
      vertex 199.122 3.90982 1
    endloop
  endfacet
  facet normal 0.669129 0.743146 0
    outer loop
      vertex 197.569 5.30869 1
      vertex 199.122 3.90982 0
      vertex 197.569 5.30869 0
    endloop
  endfacet
  facet normal 0.500001 0.866025 -0
    outer loop
      vertex 200.933 2.86453 0
      vertex 199.122 3.90982 1
      vertex 200.933 2.86453 1
    endloop
  endfacet
  facet normal 0.500001 0.866025 0
    outer loop
      vertex 199.122 3.90982 1
      vertex 200.933 2.86453 0
      vertex 199.122 3.90982 0
    endloop
  endfacet
  facet normal 0.309015 0.951057 -0
    outer loop
      vertex 202.921 2.21852 0
      vertex 200.933 2.86453 1
      vertex 202.921 2.21852 1
    endloop
  endfacet
  facet normal 0.309015 0.951057 0
    outer loop
      vertex 200.933 2.86453 1
      vertex 202.921 2.21852 0
      vertex 200.933 2.86453 0
    endloop
  endfacet
  facet normal 0.104527 0.994522 -0
    outer loop
      vertex 205 2 0
      vertex 202.921 2.21852 1
      vertex 205 2 1
    endloop
  endfacet
  facet normal 0.104527 0.994522 0
    outer loop
      vertex 202.921 2.21852 1
      vertex 205 2 0
      vertex 202.921 2.21852 0
    endloop
  endfacet
  facet normal 0 1 -0
    outer loop
      vertex 225 2 0
      vertex 205 2 1
      vertex 225 2 1
    endloop
  endfacet
  facet normal 0 1 0
    outer loop
      vertex 205 2 1
      vertex 225 2 0
      vertex 205 2 0
    endloop
  endfacet
  facet normal -1 0 0
    outer loop
      vertex 225 2 0
      vertex 225 22 1
      vertex 225 22 0
    endloop
  endfacet
  facet normal -1 -0 0
    outer loop
      vertex 225 22 1
      vertex 225 2 0
      vertex 225 2 1
    endloop
  endfacet
  facet normal 0 1 -0
    outer loop
      vertex 23.0453 2.05478 0
      vertex 22 2.05478 1
      vertex 23.0453 2.05478 1
    endloop
  endfacet
  facet normal 0 1 0
    outer loop
      vertex 22 2.05478 1
      vertex 23.0453 2.05478 0
      vertex 22 2.05478 0
    endloop
  endfacet
  facet normal -0.207908 0.978148 0
    outer loop
      vertex 25.0902 2.48943 0
      vertex 23.0453 2.05478 1
      vertex 25.0902 2.48943 1
    endloop
  endfacet
  facet normal -0.207908 0.978148 0
    outer loop
      vertex 23.0453 2.05478 1
      vertex 25.0902 2.48943 0
      vertex 23.0453 2.05478 0
    endloop
  endfacet
  facet normal -0.406736 0.913546 0
    outer loop
      vertex 27 3.33974 0
      vertex 25.0902 2.48943 1
      vertex 27 3.33974 1
    endloop
  endfacet
  facet normal -0.406736 0.913546 0
    outer loop
      vertex 25.0902 2.48943 1
      vertex 27 3.33974 0
      vertex 25.0902 2.48943 0
    endloop
  endfacet
  facet normal -0.587787 0.809016 0
    outer loop
      vertex 28.6913 4.56854 0
      vertex 27 3.33974 1
      vertex 28.6913 4.56854 1
    endloop
  endfacet
  facet normal -0.587787 0.809016 0
    outer loop
      vertex 27 3.33974 1
      vertex 28.6913 4.56854 0
      vertex 27 3.33974 0
    endloop
  endfacet
  facet normal -0.743146 0.669129 0
    outer loop
      vertex 28.6913 4.56854 0
      vertex 30.0902 6.12215 1
      vertex 30.0902 6.12215 0
    endloop
  endfacet
  facet normal -0.743146 0.669129 0
    outer loop
      vertex 30.0902 6.12215 1
      vertex 28.6913 4.56854 0
      vertex 28.6913 4.56854 1
    endloop
  endfacet
  facet normal -0.866025 0.500001 0
    outer loop
      vertex 30.0902 6.12215 0
      vertex 31.1355 7.93263 1
      vertex 31.1355 7.93263 0
    endloop
  endfacet
  facet normal -0.866025 0.500001 0
    outer loop
      vertex 31.1355 7.93263 1
      vertex 30.0902 6.12215 0
      vertex 30.0902 6.12215 1
    endloop
  endfacet
  facet normal -0.951057 0.309015 0
    outer loop
      vertex 31.1355 7.93263 0
      vertex 31.7815 9.92087 1
      vertex 31.7815 9.92087 0
    endloop
  endfacet
  facet normal -0.951057 0.309015 0
    outer loop
      vertex 31.7815 9.92087 1
      vertex 31.1355 7.93263 0
      vertex 31.1355 7.93263 1
    endloop
  endfacet
  facet normal -0.994521 0.104534 0
    outer loop
      vertex 31.7815 9.92087 0
      vertex 32 12 1
      vertex 32 12 0
    endloop
  endfacet
  facet normal -0.994521 0.104534 0
    outer loop
      vertex 32 12 1
      vertex 31.7815 9.92087 0
      vertex 31.7815 9.92087 1
    endloop
  endfacet
  facet normal -0.994521 -0.104534 0
    outer loop
      vertex 32 12 0
      vertex 31.7815 14.0791 1
      vertex 31.7815 14.0791 0
    endloop
  endfacet
  facet normal -0.994521 -0.104534 0
    outer loop
      vertex 31.7815 14.0791 1
      vertex 32 12 0
      vertex 32 12 1
    endloop
  endfacet
  facet normal -0.951057 -0.309015 0
    outer loop
      vertex 31.7815 14.0791 0
      vertex 31.1355 16.0674 1
      vertex 31.1355 16.0674 0
    endloop
  endfacet
  facet normal -0.951057 -0.309015 0
    outer loop
      vertex 31.1355 16.0674 1
      vertex 31.7815 14.0791 0
      vertex 31.7815 14.0791 1
    endloop
  endfacet
  facet normal -0.866025 -0.500001 0
    outer loop
      vertex 31.1355 16.0674 0
      vertex 30.0902 17.8778 1
      vertex 30.0902 17.8778 0
    endloop
  endfacet
  facet normal -0.866025 -0.500001 0
    outer loop
      vertex 30.0902 17.8778 1
      vertex 31.1355 16.0674 0
      vertex 31.1355 16.0674 1
    endloop
  endfacet
  facet normal -0.743146 -0.669129 0
    outer loop
      vertex 30.0902 17.8778 0
      vertex 28.6913 19.4314 1
      vertex 28.6913 19.4314 0
    endloop
  endfacet
  facet normal -0.743146 -0.669129 0
    outer loop
      vertex 28.6913 19.4314 1
      vertex 30.0902 17.8778 0
      vertex 30.0902 17.8778 1
    endloop
  endfacet
  facet normal -0.587787 -0.809016 0
    outer loop
      vertex 27 20.6602 0
      vertex 28.6913 19.4314 1
      vertex 27 20.6602 1
    endloop
  endfacet
  facet normal -0.587787 -0.809016 -0
    outer loop
      vertex 28.6913 19.4314 1
      vertex 27 20.6602 0
      vertex 28.6913 19.4314 0
    endloop
  endfacet
  facet normal -0.406736 -0.913546 0
    outer loop
      vertex 25.0902 21.5106 0
      vertex 27 20.6602 1
      vertex 25.0902 21.5106 1
    endloop
  endfacet
  facet normal -0.406736 -0.913546 -0
    outer loop
      vertex 27 20.6602 1
      vertex 25.0902 21.5106 0
      vertex 27 20.6602 0
    endloop
  endfacet
  facet normal -0.207908 -0.978148 0
    outer loop
      vertex 23.0453 21.9452 0
      vertex 25.0902 21.5106 1
      vertex 23.0453 21.9452 1
    endloop
  endfacet
  facet normal -0.207908 -0.978148 -0
    outer loop
      vertex 25.0902 21.5106 1
      vertex 23.0453 21.9452 0
      vertex 25.0902 21.5106 0
    endloop
  endfacet
  facet normal 0 -1 0
    outer loop
      vertex 22 21.9452 0
      vertex 23.0453 21.9452 1
      vertex 22 21.9452 1
    endloop
  endfacet
  facet normal 0 -1 -0
    outer loop
      vertex 23.0453 21.9452 1
      vertex 22 21.9452 0
      vertex 23.0453 21.9452 0
    endloop
  endfacet
  facet normal -1 0 0
    outer loop
      vertex 22 21.9452 0
      vertex 22 22 1
      vertex 22 22 0
    endloop
  endfacet
  facet normal -1 -0 0
    outer loop
      vertex 22 22 1
      vertex 22 21.9452 0
      vertex 22 21.9452 1
    endloop
  endfacet
  facet normal -0.994521 -0.104534 0
    outer loop
      vertex 22 22 0
      vertex 21.7815 24.0791 1
      vertex 21.7815 24.0791 0
    endloop
  endfacet
  facet normal -0.994521 -0.104534 0
    outer loop
      vertex 21.7815 24.0791 1
      vertex 22 22 0
      vertex 22 22 1
    endloop
  endfacet
  facet normal -0.951057 -0.309015 0
    outer loop
      vertex 21.7815 24.0791 0
      vertex 21.1355 26.0674 1
      vertex 21.1355 26.0674 0
    endloop
  endfacet
  facet normal -0.951057 -0.309015 0
    outer loop
      vertex 21.1355 26.0674 1
      vertex 21.7815 24.0791 0
      vertex 21.7815 24.0791 1
    endloop
  endfacet
  facet normal -0.866025 -0.500001 0
    outer loop
      vertex 21.1355 26.0674 0
      vertex 20.0902 27.8778 1
      vertex 20.0902 27.8778 0
    endloop
  endfacet
  facet normal -0.866025 -0.500001 0
    outer loop
      vertex 20.0902 27.8778 1
      vertex 21.1355 26.0674 0
      vertex 21.1355 26.0674 1
    endloop
  endfacet
  facet normal -0.743146 -0.669129 0
    outer loop
      vertex 20.0902 27.8778 0
      vertex 18.6913 29.4314 1
      vertex 18.6913 29.4314 0
    endloop
  endfacet
  facet normal -0.743146 -0.669129 0
    outer loop
      vertex 18.6913 29.4314 1
      vertex 20.0902 27.8778 0
      vertex 20.0902 27.8778 1
    endloop
  endfacet
  facet normal -0.587787 -0.809016 0
    outer loop
      vertex 17 30.6602 0
      vertex 18.6913 29.4314 1
      vertex 17 30.6602 1
    endloop
  endfacet
  facet normal -0.587787 -0.809016 -0
    outer loop
      vertex 18.6913 29.4314 1
      vertex 17 30.6602 0
      vertex 18.6913 29.4314 0
    endloop
  endfacet
  facet normal -0.406736 -0.913546 0
    outer loop
      vertex 15.0902 31.5106 0
      vertex 17 30.6602 1
      vertex 15.0902 31.5106 1
    endloop
  endfacet
  facet normal -0.406736 -0.913546 -0
    outer loop
      vertex 17 30.6602 1
      vertex 15.0902 31.5106 0
      vertex 17 30.6602 0
    endloop
  endfacet
  facet normal -0.207908 -0.978148 0
    outer loop
      vertex 13.0453 31.9452 0
      vertex 15.0902 31.5106 1
      vertex 13.0453 31.9452 1
    endloop
  endfacet
  facet normal -0.207908 -0.978148 -0
    outer loop
      vertex 15.0902 31.5106 1
      vertex 13.0453 31.9452 0
      vertex 15.0902 31.5106 0
    endloop
  endfacet
  facet normal 0 -1 0
    outer loop
      vertex 10.9547 31.9452 0
      vertex 13.0453 31.9452 1
      vertex 10.9547 31.9452 1
    endloop
  endfacet
  facet normal 0 -1 -0
    outer loop
      vertex 13.0453 31.9452 1
      vertex 10.9547 31.9452 0
      vertex 13.0453 31.9452 0
    endloop
  endfacet
  facet normal 0.207908 -0.978148 0
    outer loop
      vertex 8.90982 31.5106 0
      vertex 10.9547 31.9452 1
      vertex 8.90982 31.5106 1
    endloop
  endfacet
  facet normal 0.207908 -0.978148 0
    outer loop
      vertex 10.9547 31.9452 1
      vertex 8.90982 31.5106 0
      vertex 10.9547 31.9452 0
    endloop
  endfacet
  facet normal 0.406738 -0.913545 0
    outer loop
      vertex 7 30.6602 0
      vertex 8.90982 31.5106 1
      vertex 7 30.6602 1
    endloop
  endfacet
  facet normal 0.406738 -0.913545 0
    outer loop
      vertex 8.90982 31.5106 1
      vertex 7 30.6602 0
      vertex 8.90982 31.5106 0
    endloop
  endfacet
  facet normal 0.587783 -0.809018 0
    outer loop
      vertex 5.30869 29.4314 0
      vertex 7 30.6602 1
      vertex 5.30869 29.4314 1
    endloop
  endfacet
  facet normal 0.587783 -0.809018 0
    outer loop
      vertex 7 30.6602 1
      vertex 5.30869 29.4314 0
      vertex 7 30.6602 0
    endloop
  endfacet
  facet normal 0.743146 -0.669129 0
    outer loop
      vertex 3.90982 27.8778 1
      vertex 5.30869 29.4314 0
      vertex 5.30869 29.4314 1
    endloop
  endfacet
  facet normal 0.743146 -0.669129 0
    outer loop
      vertex 5.30869 29.4314 0
      vertex 3.90982 27.8778 1
      vertex 3.90982 27.8778 0
    endloop
  endfacet
  facet normal 0.866025 -0.500001 0
    outer loop
      vertex 2.86453 26.0674 1
      vertex 3.90982 27.8778 0
      vertex 3.90982 27.8778 1
    endloop
  endfacet
  facet normal 0.866025 -0.500001 0
    outer loop
      vertex 3.90982 27.8778 0
      vertex 2.86453 26.0674 1
      vertex 2.86453 26.0674 0
    endloop
  endfacet
  facet normal 0.951057 -0.309015 0
    outer loop
      vertex 2.21852 24.0791 1
      vertex 2.86453 26.0674 0
      vertex 2.86453 26.0674 1
    endloop
  endfacet
  facet normal 0.951057 -0.309015 0
    outer loop
      vertex 2.86453 26.0674 0
      vertex 2.21852 24.0791 1
      vertex 2.21852 24.0791 0
    endloop
  endfacet
  facet normal 0.994522 -0.104527 0
    outer loop
      vertex 2 22 1
      vertex 2.21852 24.0791 0
      vertex 2.21852 24.0791 1
    endloop
  endfacet
  facet normal 0.994522 -0.104527 0
    outer loop
      vertex 2.21852 24.0791 0
      vertex 2 22 1
      vertex 2 22 0
    endloop
  endfacet
  facet normal 1 -0 0
    outer loop
      vertex 2 2 1
      vertex 2 22 0
      vertex 2 22 1
    endloop
  endfacet
  facet normal 1 0 0
    outer loop
      vertex 2 22 0
      vertex 2 2 1
      vertex 2 2 0
    endloop
  endfacet
  facet normal 0 1 -0
    outer loop
      vertex 22 2 0
      vertex 2 2 1
      vertex 22 2 1
    endloop
  endfacet
  facet normal 0 1 0
    outer loop
      vertex 2 2 1
      vertex 22 2 0
      vertex 2 2 0
    endloop
  endfacet
  facet normal -1 0 0
    outer loop
      vertex 22 2 0
      vertex 22 2.05478 1
      vertex 22 2.05478 0
    endloop
  endfacet
  facet normal -1 -0 0
    outer loop
      vertex 22 2.05478 1
      vertex 22 2 0
      vertex 22 2 1
    endloop
  endfacet
  facet normal -1 0 0
    outer loop
      vertex 0 0 0
      vertex 0 122 92
      vertex 0 122 0
    endloop
  endfacet
  facet normal -1 -0 0
    outer loop
      vertex 0 122 92
      vertex 0 0 0
      vertex 0 0 92
    endloop
  endfacet
  facet normal -0 0 1
    outer loop
      vertex 0 122 92
      vertex 227 0 92
      vertex 227 122 92
    endloop
  endfacet
  facet normal 0 0 1
    outer loop
      vertex 227 0 92
      vertex 0 122 92
      vertex 0 0 92
    endloop
  endfacet
  facet normal 1 -0 0
    outer loop
      vertex 227 0 92
      vertex 227 122 0
      vertex 227 122 92
    endloop
  endfacet
  facet normal 1 0 0
    outer loop
      vertex 227 122 0
      vertex 227 0 92
      vertex 227 0 0
    endloop
  endfacet
  facet normal 0 1 0
    outer loop
      vertex 227 122 92
      vertex 226 122 91
      vertex 0 122 92
    endloop
  endfacet
  facet normal 0 1 0
    outer loop
      vertex 227 122 92
      vertex 226 122 1
      vertex 226 122 91
    endloop
  endfacet
  facet normal 0 1 0
    outer loop
      vertex 226 122 1
      vertex 227 122 0
      vertex 1 122 1
    endloop
  endfacet
  facet normal 0 1 -0
    outer loop
      vertex 227 122 0
      vertex 226 122 1
      vertex 227 122 92
    endloop
  endfacet
  facet normal 0 1 -0
    outer loop
      vertex 1 122 91
      vertex 0 122 92
      vertex 226 122 91
    endloop
  endfacet
  facet normal 0 1 -0
    outer loop
      vertex 1 122 1
      vertex 0 122 92
      vertex 1 122 91
    endloop
  endfacet
  facet normal 0 1 0
    outer loop
      vertex 1 122 1
      vertex 0 122 0
      vertex 0 122 92
    endloop
  endfacet
  facet normal 0 1 0
    outer loop
      vertex 0 122 0
      vertex 1 122 1
      vertex 227 122 0
    endloop
  endfacet
  facet normal 0 -1 0
    outer loop
      vertex 0 0 0
      vertex 227 0 92
      vertex 0 0 92
    endloop
  endfacet
  facet normal 0 -1 -0
    outer loop
      vertex 227 0 92
      vertex 0 0 0
      vertex 227 0 0
    endloop
  endfacet
endsolid OpenSCAD_Model
