solid OpenSCAD_Model
  facet normal 1 -0 0
    outer loop
      vertex 2 2 94
      vertex 2 124 2
      vertex 2 124 94
    endloop
  endfacet
  facet normal 1 0 0
    outer loop
      vertex 2 124 2
      vertex 2 2 94
      vertex 2 2 2
    endloop
  endfacet
  facet normal 0 0 -1
    outer loop
      vertex 2 2 94
      vertex 229 124 94
      vertex 229 2 94
    endloop
  endfacet
  facet normal -0 0 -1
    outer loop
      vertex 229 124 94
      vertex 2 2 94
      vertex 2 124 94
    endloop
  endfacet
  facet normal -1 0 0
    outer loop
      vertex 229 2 2
      vertex 229 124 94
      vertex 229 124 2
    endloop
  endfacet
  facet normal -1 -0 0
    outer loop
      vertex 229 124 94
      vertex 229 2 2
      vertex 229 2 94
    endloop
  endfacet
  facet normal 0 0 1
    outer loop
      vertex 160.028 56.76 2
      vertex 157.81 54.5426 2
      vertex 157.926 54.4264 2
    endloop
  endfacet
  facet normal 0 0 1
    outer loop
      vertex 229 124 2
      vertex 166.672 74.0695 2
      vertex 229 2 2
    endloop
  endfacet
  facet normal 0 0 1
    outer loop
      vertex 229 124 2
      vertex 166.344 80.3326 2
      vertex 166.672 74.0695 2
    endloop
  endfacet
  facet normal 0 0 1
    outer loop
      vertex 229 124 2
      vertex 164.721 86.3906 2
      vertex 166.344 80.3326 2
    endloop
  endfacet
  facet normal 0 0 1
    outer loop
      vertex 229 124 2
      vertex 161.873 91.9787 2
      vertex 164.721 86.3906 2
    endloop
  endfacet
  facet normal 0 0 1
    outer loop
      vertex 229 124 2
      vertex 157.926 96.8528 2
      vertex 161.873 91.9787 2
    endloop
  endfacet
  facet normal 0 0 1
    outer loop
      vertex 229 124 2
      vertex 153.052 100.8 2
      vertex 157.926 96.8528 2
    endloop
  endfacet
  facet normal 0 0 1
    outer loop
      vertex 229 124 2
      vertex 147.464 103.647 2
      vertex 153.052 100.8 2
    endloop
  endfacet
  facet normal 0 0 1
    outer loop
      vertex 229 124 2
      vertex 141.406 105.27 2
      vertex 147.464 103.647 2
    endloop
  endfacet
  facet normal 0 0 1
    outer loop
      vertex 229 124 2
      vertex 135.143 105.598 2
      vertex 141.406 105.27 2
    endloop
  endfacet
  facet normal 0 0 1
    outer loop
      vertex 98.9799 105.27 2
      vertex 135.143 105.598 2
      vertex 229 124 2
    endloop
  endfacet
  facet normal 0 0 1
    outer loop
      vertex 117.834 98.9539 2
      vertex 115.5 96.8528 2
      vertex 115.616 96.7366 2
    endloop
  endfacet
  facet normal 0 0 1
    outer loop
      vertex 117.834 98.9539 2
      vertex 110.626 100.8 2
      vertex 115.5 96.8528 2
    endloop
  endfacet
  facet normal 0 0 1
    outer loop
      vertex 123.093 102.37 2
      vertex 110.626 100.8 2
      vertex 117.834 98.9539 2
    endloop
  endfacet
  facet normal -0 0 1
    outer loop
      vertex 105.038 103.647 2
      vertex 123.093 102.37 2
      vertex 128.949 104.617 2
    endloop
  endfacet
  facet normal 0 0 1
    outer loop
      vertex 123.093 102.37 2
      vertex 105.038 103.647 2
      vertex 110.626 100.8 2
    endloop
  endfacet
  facet normal 0 0 1
    outer loop
      vertex 135.143 105.598 2
      vertex 98.9799 105.27 2
      vertex 128.949 104.617 2
    endloop
  endfacet
  facet normal 0 0 1
    outer loop
      vertex 128.949 104.617 2
      vertex 98.9799 105.27 2
      vertex 105.038 103.647 2
    endloop
  endfacet
  facet normal 0 0 1
    outer loop
      vertex 229 124 2
      vertex 92.7167 105.598 2
      vertex 98.9799 105.27 2
    endloop
  endfacet
  facet normal 0 0 1
    outer loop
      vertex 65.309 83.4042 2
      vertex 2 124 2
      vertex 64.3279 77.2097 2
    endloop
  endfacet
  facet normal 0 0 1
    outer loop
      vertex 67.5566 89.2593 2
      vertex 2 124 2
      vertex 65.309 83.4042 2
    endloop
  endfacet
  facet normal 0 0 1
    outer loop
      vertex 70.9724 94.5192 2
      vertex 2 124 2
      vertex 67.5566 89.2593 2
    endloop
  endfacet
  facet normal 0 0 1
    outer loop
      vertex 75.4072 98.9539 2
      vertex 2 124 2
      vertex 70.9724 94.5192 2
    endloop
  endfacet
  facet normal 0 0 1
    outer loop
      vertex 80.6671 102.37 2
      vertex 2 124 2
      vertex 75.4072 98.9539 2
    endloop
  endfacet
  facet normal 0 0 1
    outer loop
      vertex 86.5222 104.617 2
      vertex 2 124 2
      vertex 80.6671 102.37 2
    endloop
  endfacet
  facet normal 0 0 1
    outer loop
      vertex 92.7167 105.598 2
      vertex 2 124 2
      vertex 86.5222 104.617 2
    endloop
  endfacet
  facet normal -0 0 1
    outer loop
      vertex 2 124 2
      vertex 92.7167 105.598 2
      vertex 229 124 2
    endloop
  endfacet
  facet normal -0 0 1
    outer loop
      vertex 165.691 67.875 2
      vertex 229 2 2
      vertex 166.672 74.0695 2
    endloop
  endfacet
  facet normal -0 0 1
    outer loop
      vertex 163.443 62.0199 2
      vertex 229 2 2
      vertex 165.691 67.875 2
    endloop
  endfacet
  facet normal -0 0 1
    outer loop
      vertex 160.028 56.76 2
      vertex 229 2 2
      vertex 163.443 62.0199 2
    endloop
  endfacet
  facet normal -0 0 1
    outer loop
      vertex 157.926 54.4264 2
      vertex 229 2 2
      vertex 160.028 56.76 2
    endloop
  endfacet
  facet normal -0 0 1
    outer loop
      vertex 115.5 12 2
      vertex 229 2 2
      vertex 157.926 54.4264 2
    endloop
  endfacet
  facet normal 0 0 1
    outer loop
      vertex 2 124 2
      vertex 64.6562 70.9465 2
      vertex 64.3279 77.2097 2
    endloop
  endfacet
  facet normal 0 0 1
    outer loop
      vertex 2 2 2
      vertex 64.6562 70.9465 2
      vertex 2 124 2
    endloop
  endfacet
  facet normal 0 0 1
    outer loop
      vertex 64.6562 70.9465 2
      vertex 2 2 2
      vertex 66.2794 64.8885 2
    endloop
  endfacet
  facet normal 0 0 1
    outer loop
      vertex 66.2794 64.8885 2
      vertex 2 2 2
      vertex 69.1267 59.3004 2
    endloop
  endfacet
  facet normal 0 0 1
    outer loop
      vertex 69.1267 59.3004 2
      vertex 2 2 2
      vertex 73.0736 54.4264 2
    endloop
  endfacet
  facet normal 0 0 1
    outer loop
      vertex 115.5 12 2
      vertex 2 2 2
      vertex 229 2 2
    endloop
  endfacet
  facet normal 0 0 1
    outer loop
      vertex 73.0736 54.4264 2
      vertex 2 2 2
      vertex 115.5 12 2
    endloop
  endfacet
  facet normal 0 1 -0
    outer loop
      vertex 229 2 2
      vertex 2 2 94
      vertex 229 2 94
    endloop
  endfacet
  facet normal 0 1 0
    outer loop
      vertex 2 2 94
      vertex 229 2 2
      vertex 2 2 2
    endloop
  endfacet
  facet normal 0 0 -1
    outer loop
      vertex 231 0 0
      vertex 166.672 74.0695 0
      vertex 231 124 0
    endloop
  endfacet
  facet normal 0 0 -1
    outer loop
      vertex 231 0 0
      vertex 165.691 67.875 0
      vertex 166.672 74.0695 0
    endloop
  endfacet
  facet normal 0 0 -1
    outer loop
      vertex 231 0 0
      vertex 163.443 62.0199 0
      vertex 165.691 67.875 0
    endloop
  endfacet
  facet normal 0 0 -1
    outer loop
      vertex 231 0 0
      vertex 160.028 56.76 0
      vertex 163.443 62.0199 0
    endloop
  endfacet
  facet normal 0 0 -1
    outer loop
      vertex 231 0 0
      vertex 157.926 54.4264 0
      vertex 160.028 56.76 0
    endloop
  endfacet
  facet normal 0 0 -1
    outer loop
      vertex 231 0 0
      vertex 115.5 12 0
      vertex 157.926 54.4264 0
    endloop
  endfacet
  facet normal 0 0 -1
    outer loop
      vertex 0 124 0
      vertex 64.6562 70.9465 0
      vertex 0 0 0
    endloop
  endfacet
  facet normal -0 0 -1
    outer loop
      vertex 66.2794 64.8885 0
      vertex 0 0 0
      vertex 64.6562 70.9465 0
    endloop
  endfacet
  facet normal -0 0 -1
    outer loop
      vertex 69.1267 59.3004 0
      vertex 0 0 0
      vertex 66.2794 64.8885 0
    endloop
  endfacet
  facet normal -0 0 -1
    outer loop
      vertex 73.0736 54.4264 0
      vertex 0 0 0
      vertex 69.1267 59.3004 0
    endloop
  endfacet
  facet normal -0 0 -1
    outer loop
      vertex 115.5 12 0
      vertex 0 0 0
      vertex 73.0736 54.4264 0
    endloop
  endfacet
  facet normal 0 0 -1
    outer loop
      vertex 0 0 0
      vertex 115.5 12 0
      vertex 231 0 0
    endloop
  endfacet
  facet normal 0 0 -1
    outer loop
      vertex 166.344 80.3326 0
      vertex 231 124 0
      vertex 166.672 74.0695 0
    endloop
  endfacet
  facet normal 0 0 -1
    outer loop
      vertex 164.721 86.3906 0
      vertex 231 124 0
      vertex 166.344 80.3326 0
    endloop
  endfacet
  facet normal 0 0 -1
    outer loop
      vertex 161.873 91.9787 0
      vertex 231 124 0
      vertex 164.721 86.3906 0
    endloop
  endfacet
  facet normal 0 0 -1
    outer loop
      vertex 157.926 96.8528 0
      vertex 231 124 0
      vertex 161.873 91.9787 0
    endloop
  endfacet
  facet normal 0 0 -1
    outer loop
      vertex 153.052 100.8 0
      vertex 231 124 0
      vertex 157.926 96.8528 0
    endloop
  endfacet
  facet normal 0 0 -1
    outer loop
      vertex 147.464 103.647 0
      vertex 231 124 0
      vertex 153.052 100.8 0
    endloop
  endfacet
  facet normal 0 0 -1
    outer loop
      vertex 141.406 105.27 0
      vertex 231 124 0
      vertex 147.464 103.647 0
    endloop
  endfacet
  facet normal 0 0 -1
    outer loop
      vertex 135.143 105.598 0
      vertex 231 124 0
      vertex 141.406 105.27 0
    endloop
  endfacet
  facet normal 0 0 -1
    outer loop
      vertex 98.9799 105.27 0
      vertex 135.143 105.598 0
      vertex 128.949 104.617 0
    endloop
  endfacet
  facet normal 0 0 -1
    outer loop
      vertex 115.5 96.8528 0
      vertex 117.834 98.9539 0
      vertex 115.616 96.7366 0
    endloop
  endfacet
  facet normal 0 0 -1
    outer loop
      vertex 110.626 100.8 0
      vertex 117.834 98.9539 0
      vertex 115.5 96.8528 0
    endloop
  endfacet
  facet normal 0 0 -1
    outer loop
      vertex 110.626 100.8 0
      vertex 123.093 102.37 0
      vertex 117.834 98.9539 0
    endloop
  endfacet
  facet normal 0 0 -1
    outer loop
      vertex 105.038 103.647 0
      vertex 123.093 102.37 0
      vertex 110.626 100.8 0
    endloop
  endfacet
  facet normal 0 0 -1
    outer loop
      vertex 123.093 102.37 0
      vertex 105.038 103.647 0
      vertex 128.949 104.617 0
    endloop
  endfacet
  facet normal 0 0 -1
    outer loop
      vertex 98.9799 105.27 0
      vertex 128.949 104.617 0
      vertex 105.038 103.647 0
    endloop
  endfacet
  facet normal -0 0 -1
    outer loop
      vertex 135.143 105.598 0
      vertex 98.9799 105.27 0
      vertex 231 124 0
    endloop
  endfacet
  facet normal 0 0 -1
    outer loop
      vertex 92.7167 105.598 0
      vertex 231 124 0
      vertex 98.9799 105.27 0
    endloop
  endfacet
  facet normal 0 0 -1
    outer loop
      vertex 64.6562 70.9465 0
      vertex 0 124 0
      vertex 64.3279 77.2097 0
    endloop
  endfacet
  facet normal 0 0 -1
    outer loop
      vertex 64.3279 77.2097 0
      vertex 0 124 0
      vertex 65.309 83.4042 0
    endloop
  endfacet
  facet normal 0 0 -1
    outer loop
      vertex 65.309 83.4042 0
      vertex 0 124 0
      vertex 67.5566 89.2593 0
    endloop
  endfacet
  facet normal 0 0 -1
    outer loop
      vertex 92.7167 105.598 0
      vertex 0 124 0
      vertex 231 124 0
    endloop
  endfacet
  facet normal 0 0 -1
    outer loop
      vertex 86.5222 104.617 0
      vertex 0 124 0
      vertex 92.7167 105.598 0
    endloop
  endfacet
  facet normal 0 0 -1
    outer loop
      vertex 80.6671 102.37 0
      vertex 0 124 0
      vertex 86.5222 104.617 0
    endloop
  endfacet
  facet normal 0 0 -1
    outer loop
      vertex 75.4072 98.9539 0
      vertex 0 124 0
      vertex 80.6671 102.37 0
    endloop
  endfacet
  facet normal 0 0 -1
    outer loop
      vertex 70.9724 94.5192 0
      vertex 0 124 0
      vertex 75.4072 98.9539 0
    endloop
  endfacet
  facet normal 0 0 -1
    outer loop
      vertex 67.5566 89.2593 0
      vertex 0 124 0
      vertex 70.9724 94.5192 0
    endloop
  endfacet
  facet normal 0 0 -1
    outer loop
      vertex 160.028 56.76 0
      vertex 157.926 54.4264 0
      vertex 157.81 54.5426 0
    endloop
  endfacet
  facet normal -0.707084 -0.70713 0
    outer loop
      vertex 157.81 54.5426 0
      vertex 157.926 54.4264 2
      vertex 157.81 54.5426 2
    endloop
  endfacet
  facet normal -0.707084 -0.70713 -0
    outer loop
      vertex 157.926 54.4264 2
      vertex 157.81 54.5426 0
      vertex 157.926 54.4264 0
    endloop
  endfacet
  facet normal -0.707106 0.707107 0
    outer loop
      vertex 160.028 56.76 0
      vertex 157.81 54.5426 2
      vertex 160.028 56.76 2
    endloop
  endfacet
  facet normal -0.707106 0.707107 0
    outer loop
      vertex 157.81 54.5426 2
      vertex 160.028 56.76 0
      vertex 157.81 54.5426 0
    endloop
  endfacet
  facet normal -0.838668 0.544643 0
    outer loop
      vertex 160.028 56.76 0
      vertex 163.443 62.0199 2
      vertex 163.443 62.0199 0
    endloop
  endfacet
  facet normal -0.838668 0.544643 0
    outer loop
      vertex 163.443 62.0199 2
      vertex 160.028 56.76 0
      vertex 160.028 56.76 2
    endloop
  endfacet
  facet normal -0.93358 0.358369 0
    outer loop
      vertex 163.443 62.0199 0
      vertex 165.691 67.875 2
      vertex 165.691 67.875 0
    endloop
  endfacet
  facet normal -0.93358 0.358369 0
    outer loop
      vertex 165.691 67.875 2
      vertex 163.443 62.0199 0
      vertex 163.443 62.0199 2
    endloop
  endfacet
  facet normal -0.987689 0.156432 0
    outer loop
      vertex 165.691 67.875 0
      vertex 166.672 74.0695 2
      vertex 166.672 74.0695 0
    endloop
  endfacet
  facet normal -0.987689 0.156432 0
    outer loop
      vertex 166.672 74.0695 2
      vertex 165.691 67.875 0
      vertex 165.691 67.875 2
    endloop
  endfacet
  facet normal -0.998629 -0.0523376 0
    outer loop
      vertex 166.672 74.0695 0
      vertex 166.344 80.3326 2
      vertex 166.344 80.3326 0
    endloop
  endfacet
  facet normal -0.998629 -0.0523376 0
    outer loop
      vertex 166.344 80.3326 2
      vertex 166.672 74.0695 0
      vertex 166.672 74.0695 2
    endloop
  endfacet
  facet normal -0.965926 -0.258818 0
    outer loop
      vertex 166.344 80.3326 0
      vertex 164.721 86.3906 2
      vertex 164.721 86.3906 0
    endloop
  endfacet
  facet normal -0.965926 -0.258818 0
    outer loop
      vertex 164.721 86.3906 2
      vertex 166.344 80.3326 0
      vertex 166.344 80.3326 2
    endloop
  endfacet
  facet normal -0.891005 -0.453993 0
    outer loop
      vertex 164.721 86.3906 0
      vertex 161.873 91.9787 2
      vertex 161.873 91.9787 0
    endloop
  endfacet
  facet normal -0.891005 -0.453993 0
    outer loop
      vertex 161.873 91.9787 2
      vertex 164.721 86.3906 0
      vertex 164.721 86.3906 2
    endloop
  endfacet
  facet normal -0.77715 -0.629316 0
    outer loop
      vertex 161.873 91.9787 0
      vertex 157.926 96.8528 2
      vertex 157.926 96.8528 0
    endloop
  endfacet
  facet normal -0.77715 -0.629316 0
    outer loop
      vertex 157.926 96.8528 2
      vertex 161.873 91.9787 0
      vertex 161.873 91.9787 2
    endloop
  endfacet
  facet normal -0.629316 -0.77715 0
    outer loop
      vertex 153.052 100.8 0
      vertex 157.926 96.8528 2
      vertex 153.052 100.8 2
    endloop
  endfacet
  facet normal -0.629316 -0.77715 -0
    outer loop
      vertex 157.926 96.8528 2
      vertex 153.052 100.8 0
      vertex 157.926 96.8528 0
    endloop
  endfacet
  facet normal -0.453993 -0.891005 0
    outer loop
      vertex 147.464 103.647 0
      vertex 153.052 100.8 2
      vertex 147.464 103.647 2
    endloop
  endfacet
  facet normal -0.453993 -0.891005 -0
    outer loop
      vertex 153.052 100.8 2
      vertex 147.464 103.647 0
      vertex 153.052 100.8 0
    endloop
  endfacet
  facet normal -0.258818 -0.965926 0
    outer loop
      vertex 141.406 105.27 0
      vertex 147.464 103.647 2
      vertex 141.406 105.27 2
    endloop
  endfacet
  facet normal -0.258818 -0.965926 -0
    outer loop
      vertex 147.464 103.647 2
      vertex 141.406 105.27 0
      vertex 147.464 103.647 0
    endloop
  endfacet
  facet normal -0.0523377 -0.998629 0
    outer loop
      vertex 135.143 105.598 0
      vertex 141.406 105.27 2
      vertex 135.143 105.598 2
    endloop
  endfacet
  facet normal -0.0523377 -0.998629 -0
    outer loop
      vertex 141.406 105.27 2
      vertex 135.143 105.598 0
      vertex 141.406 105.27 0
    endloop
  endfacet
  facet normal 0.156432 -0.987689 0
    outer loop
      vertex 128.949 104.617 0
      vertex 135.143 105.598 2
      vertex 128.949 104.617 2
    endloop
  endfacet
  facet normal 0.156432 -0.987689 0
    outer loop
      vertex 135.143 105.598 2
      vertex 128.949 104.617 0
      vertex 135.143 105.598 0
    endloop
  endfacet
  facet normal 0.358369 -0.93358 0
    outer loop
      vertex 123.093 102.37 0
      vertex 128.949 104.617 2
      vertex 123.093 102.37 2
    endloop
  endfacet
  facet normal 0.358369 -0.93358 0
    outer loop
      vertex 128.949 104.617 2
      vertex 123.093 102.37 0
      vertex 128.949 104.617 0
    endloop
  endfacet
  facet normal 0.544643 -0.838668 0
    outer loop
      vertex 117.834 98.9539 0
      vertex 123.093 102.37 2
      vertex 117.834 98.9539 2
    endloop
  endfacet
  facet normal 0.544643 -0.838668 0
    outer loop
      vertex 123.093 102.37 2
      vertex 117.834 98.9539 0
      vertex 123.093 102.37 0
    endloop
  endfacet
  facet normal 0.707106 -0.707108 0
    outer loop
      vertex 115.616 96.7366 0
      vertex 117.834 98.9539 2
      vertex 115.616 96.7366 2
    endloop
  endfacet
  facet normal 0.707106 -0.707108 0
    outer loop
      vertex 117.834 98.9539 2
      vertex 115.616 96.7366 0
      vertex 117.834 98.9539 0
    endloop
  endfacet
  facet normal -0.707107 -0.707107 0
    outer loop
      vertex 115.616 96.7366 0
      vertex 115.5 96.8528 2
      vertex 115.5 96.8528 0
    endloop
  endfacet
  facet normal -0.707107 -0.707107 0
    outer loop
      vertex 115.5 96.8528 2
      vertex 115.616 96.7366 0
      vertex 115.616 96.7366 2
    endloop
  endfacet
  facet normal -0.629315 -0.77715 0
    outer loop
      vertex 110.626 100.8 0
      vertex 115.5 96.8528 2
      vertex 110.626 100.8 2
    endloop
  endfacet
  facet normal -0.629315 -0.77715 -0
    outer loop
      vertex 115.5 96.8528 2
      vertex 110.626 100.8 0
      vertex 115.5 96.8528 0
    endloop
  endfacet
  facet normal -0.453993 -0.891005 0
    outer loop
      vertex 105.038 103.647 0
      vertex 110.626 100.8 2
      vertex 105.038 103.647 2
    endloop
  endfacet
  facet normal -0.453993 -0.891005 -0
    outer loop
      vertex 110.626 100.8 2
      vertex 105.038 103.647 0
      vertex 110.626 100.8 0
    endloop
  endfacet
  facet normal -0.258818 -0.965926 0
    outer loop
      vertex 98.9799 105.27 0
      vertex 105.038 103.647 2
      vertex 98.9799 105.27 2
    endloop
  endfacet
  facet normal -0.258818 -0.965926 -0
    outer loop
      vertex 105.038 103.647 2
      vertex 98.9799 105.27 0
      vertex 105.038 103.647 0
    endloop
  endfacet
  facet normal -0.0523375 -0.998629 0
    outer loop
      vertex 92.7167 105.598 0
      vertex 98.9799 105.27 2
      vertex 92.7167 105.598 2
    endloop
  endfacet
  facet normal -0.0523375 -0.998629 -0
    outer loop
      vertex 98.9799 105.27 2
      vertex 92.7167 105.598 0
      vertex 98.9799 105.27 0
    endloop
  endfacet
  facet normal 0.156432 -0.987689 0
    outer loop
      vertex 86.5222 104.617 0
      vertex 92.7167 105.598 2
      vertex 86.5222 104.617 2
    endloop
  endfacet
  facet normal 0.156432 -0.987689 0
    outer loop
      vertex 92.7167 105.598 2
      vertex 86.5222 104.617 0
      vertex 92.7167 105.598 0
    endloop
  endfacet
  facet normal 0.358369 -0.93358 0
    outer loop
      vertex 80.6671 102.37 0
      vertex 86.5222 104.617 2
      vertex 80.6671 102.37 2
    endloop
  endfacet
  facet normal 0.358369 -0.93358 0
    outer loop
      vertex 86.5222 104.617 2
      vertex 80.6671 102.37 0
      vertex 86.5222 104.617 0
    endloop
  endfacet
  facet normal 0.544643 -0.838668 0
    outer loop
      vertex 75.4072 98.9539 0
      vertex 80.6671 102.37 2
      vertex 75.4072 98.9539 2
    endloop
  endfacet
  facet normal 0.544643 -0.838668 0
    outer loop
      vertex 80.6671 102.37 2
      vertex 75.4072 98.9539 0
      vertex 80.6671 102.37 0
    endloop
  endfacet
  facet normal 0.707106 -0.707107 0
    outer loop
      vertex 70.9724 94.5192 0
      vertex 75.4072 98.9539 2
      vertex 70.9724 94.5192 2
    endloop
  endfacet
  facet normal 0.707106 -0.707107 0
    outer loop
      vertex 75.4072 98.9539 2
      vertex 70.9724 94.5192 0
      vertex 75.4072 98.9539 0
    endloop
  endfacet
  facet normal 0.838669 -0.544642 0
    outer loop
      vertex 67.5566 89.2593 2
      vertex 70.9724 94.5192 0
      vertex 70.9724 94.5192 2
    endloop
  endfacet
  facet normal 0.838669 -0.544642 0
    outer loop
      vertex 70.9724 94.5192 0
      vertex 67.5566 89.2593 2
      vertex 67.5566 89.2593 0
    endloop
  endfacet
  facet normal 0.933581 -0.358366 0
    outer loop
      vertex 65.309 83.4042 2
      vertex 67.5566 89.2593 0
      vertex 67.5566 89.2593 2
    endloop
  endfacet
  facet normal 0.933581 -0.358366 0
    outer loop
      vertex 67.5566 89.2593 0
      vertex 65.309 83.4042 2
      vertex 65.309 83.4042 0
    endloop
  endfacet
  facet normal 0.987688 -0.156437 0
    outer loop
      vertex 64.3279 77.2097 2
      vertex 65.309 83.4042 0
      vertex 65.309 83.4042 2
    endloop
  endfacet
  facet normal 0.987688 -0.156437 0
    outer loop
      vertex 65.309 83.4042 0
      vertex 64.3279 77.2097 2
      vertex 64.3279 77.2097 0
    endloop
  endfacet
  facet normal 0.998629 0.0523388 0
    outer loop
      vertex 64.6562 70.9465 2
      vertex 64.3279 77.2097 0
      vertex 64.3279 77.2097 2
    endloop
  endfacet
  facet normal 0.998629 0.0523388 0
    outer loop
      vertex 64.3279 77.2097 0
      vertex 64.6562 70.9465 2
      vertex 64.6562 70.9465 0
    endloop
  endfacet
  facet normal 0.965926 0.258818 0
    outer loop
      vertex 66.2794 64.8885 2
      vertex 64.6562 70.9465 0
      vertex 64.6562 70.9465 2
    endloop
  endfacet
  facet normal 0.965926 0.258818 0
    outer loop
      vertex 64.6562 70.9465 0
      vertex 66.2794 64.8885 2
      vertex 66.2794 64.8885 0
    endloop
  endfacet
  facet normal 0.891006 0.453992 0
    outer loop
      vertex 69.1267 59.3004 2
      vertex 66.2794 64.8885 0
      vertex 66.2794 64.8885 2
    endloop
  endfacet
  facet normal 0.891006 0.453992 0
    outer loop
      vertex 66.2794 64.8885 0
      vertex 69.1267 59.3004 2
      vertex 69.1267 59.3004 0
    endloop
  endfacet
  facet normal 0.777145 0.629322 0
    outer loop
      vertex 73.0736 54.4264 2
      vertex 69.1267 59.3004 0
      vertex 69.1267 59.3004 2
    endloop
  endfacet
  facet normal 0.777145 0.629322 0
    outer loop
      vertex 69.1267 59.3004 0
      vertex 73.0736 54.4264 2
      vertex 73.0736 54.4264 0
    endloop
  endfacet
  facet normal 0.707107 0.707107 0
    outer loop
      vertex 115.5 12 2
      vertex 73.0736 54.4264 0
      vertex 73.0736 54.4264 2
    endloop
  endfacet
  facet normal 0.707107 0.707107 0
    outer loop
      vertex 73.0736 54.4264 0
      vertex 115.5 12 2
      vertex 115.5 12 0
    endloop
  endfacet
  facet normal -0.707107 0.707107 0
    outer loop
      vertex 115.5 12 0
      vertex 157.926 54.4264 2
      vertex 157.926 54.4264 0
    endloop
  endfacet
  facet normal -0.707107 0.707107 0
    outer loop
      vertex 157.926 54.4264 2
      vertex 115.5 12 0
      vertex 115.5 12 2
    endloop
  endfacet
  facet normal -1 0 0
    outer loop
      vertex 0 0 0
      vertex 0 124 96
      vertex 0 124 0
    endloop
  endfacet
  facet normal -1 -0 0
    outer loop
      vertex 0 124 96
      vertex 0 0 0
      vertex 0 0 96
    endloop
  endfacet
  facet normal -0 0 1
    outer loop
      vertex 0 124 96
      vertex 231 0 96
      vertex 231 124 96
    endloop
  endfacet
  facet normal 0 0 1
    outer loop
      vertex 231 0 96
      vertex 0 124 96
      vertex 0 0 96
    endloop
  endfacet
  facet normal 1 -0 0
    outer loop
      vertex 231 0 96
      vertex 231 124 0
      vertex 231 124 96
    endloop
  endfacet
  facet normal 1 0 0
    outer loop
      vertex 231 124 0
      vertex 231 0 96
      vertex 231 0 0
    endloop
  endfacet
  facet normal 0 1 0
    outer loop
      vertex 231 124 96
      vertex 229 124 94
      vertex 0 124 96
    endloop
  endfacet
  facet normal 0 1 0
    outer loop
      vertex 231 124 96
      vertex 229 124 2
      vertex 229 124 94
    endloop
  endfacet
  facet normal 0 1 0
    outer loop
      vertex 229 124 2
      vertex 231 124 0
      vertex 2 124 2
    endloop
  endfacet
  facet normal 0 1 -0
    outer loop
      vertex 231 124 0
      vertex 229 124 2
      vertex 231 124 96
    endloop
  endfacet
  facet normal 0 1 -0
    outer loop
      vertex 2 124 94
      vertex 0 124 96
      vertex 229 124 94
    endloop
  endfacet
  facet normal 0 1 -0
    outer loop
      vertex 2 124 2
      vertex 0 124 96
      vertex 2 124 94
    endloop
  endfacet
  facet normal 0 1 0
    outer loop
      vertex 2 124 2
      vertex 0 124 0
      vertex 0 124 96
    endloop
  endfacet
  facet normal 0 1 0
    outer loop
      vertex 0 124 0
      vertex 2 124 2
      vertex 231 124 0
    endloop
  endfacet
  facet normal 0 -1 0
    outer loop
      vertex 0 0 0
      vertex 231 0 96
      vertex 0 0 96
    endloop
  endfacet
  facet normal 0 -1 -0
    outer loop
      vertex 231 0 96
      vertex 0 0 0
      vertex 231 0 0
    endloop
  endfacet
endsolid OpenSCAD_Model
